<?xml version="1.0" encoding="utf-8"?>
<!-- Generator: Adobe Illustrator 25.4.1, SVG Export Plug-In . SVG Version: 6.00 Build 0)  -->
<svg version="1.1" id="Outline" xmlns="http://www.w3.org/2000/svg" xmlns:xlink="http://www.w3.org/1999/xlink" x="0px" y="0px"
	 viewBox="0 0 1920 1080" style="enable-background:new 0 0 1920 1080;" xml:space="preserve">
<style type="text/css">
	.st0{fill:#FFFFFF;stroke:#000000;stroke-miterlimit:10;}
	.st1{fill:#5271FF;}
</style>
<path class="st0" d="M1508.5-0.5"/>
<g id="XMLID_00000109748414270411693850000000715771313900049843_">
	<g>
		<path class="st1" d="M1460.35,0.5c41.21,143.45,13.84,212.56-21.94,249.08c-38.8,39.6-74.56,27.66-185.95,92.09
			c-52.11,30.15-104.37,60.38-150.14,115.12c-55.39,66.26-34.06,88-82,139.19c-58.52,62.49-140.85,84.08-211.36,102.57
			c-128.15,33.6-188.57,12.48-221.75,57.56c-27.69,37.62,1,70.56-33.49,109.88c-31.52,35.95-84.97,42.04-120.12,46.05
			c-102.15,11.65-126.83-33.79-203.27-12.56c-68.61,19.07-108.56,63.84-108.56,63.84c-19.61,21.98-28.47,43.37-58.9,61.75
			c-23.11,13.95-46.61,18.9-62.37,20.93L0,0L1460.35,0.5z"/>
	</g>
	<g>
	</g>
</g>
</svg>
