<?xml version="1.0" encoding="utf-8"?>
<!-- Generator: Adobe Illustrator 25.4.1, SVG Export Plug-In . SVG Version: 6.00 Build 0)  -->
<svg version="1.1" id="Layer_1" xmlns="http://www.w3.org/2000/svg" xmlns:xlink="http://www.w3.org/1999/xlink" x="0px" y="0px"
	 viewBox="0 0 2000 2400" style="enable-background:new 0 0 2000 2400;" xml:space="preserve">
<style type="text/css">
	.st0{fill:#FFFFFF;}
	.st1{fill:#EDDDD8;}
	.st2{fill:#3B1E1E;}
	.st3{fill:#CCB4AB;}
	.st4{fill:#DE684E;}
</style>
<rect x="-200" y="200" transform="matrix(-1.836970e-16 1 -1 -1.836970e-16 2200 200)" class="st0" width="2400" height="2000"/>
<g>
	<path class="st1" d="M1150.09,1939.53h166.66l-69.62-375.22l-214.31,138c-42.34,27.26-59.53,80.64-41.05,127.48l26.25,66.57
		l-104.27,6.36c-11.57,0.66-32.89,12.06-32.23,37.55l41-0.33l227.69-0.26L1150.09,1939.53z"/>
	<path class="st2" d="M456.45,1170.76l168.1,532.05l11.8,224.92c0.5,10.4,9.66,28.71,30,31.99c2.2,0.53,4.51,0.75,6.87,0.59l0-0.05
		c0.14,0,0.26,0.02,0.4,0.01l0.13-289.33l3.68-478.17L456.45,1170.76z"/>
	<path class="st1" d="M1579.97,1745.39l-75.66,32.44l-272.69-788.21l0,0c218.31,45.35,371.44,242.45,361.42,465.2L1579.97,1745.39z"
		/>
	<path class="st2" d="M1262.15,1077.06l242.44,700.77l11.67-5.01l11.77-261.72C1536.52,1322.53,1428.07,1152.36,1262.15,1077.06z"/>
	<path class="st2" d="M1445.1,1475.35l-180.31-183.9c-111.74-113.96-240.16-232.04-308.36-374.29
		c-31.84-66.41-35.46-140.7-19.65-202.43l0.73-4.6l-410.48-39.8l-15.76,78.75c10.53,0.71,20.13,7.1,22.9,20.81
		c5.25,25.98-0.35,51.39-6.31,76.76c-6.2,26.36-9.06,53.03-13.18,79.78c-8.47,55.01-20.93,109.02-31.96,163.52
		c-3.93,19.42-6.77,39.54-4.27,59.37c2.99,23.61,13.51,45.96,23.28,67.38c20.55,45.07,44.53,89.49,74.73,128.9
		c30.7,40.07,70.48,71.32,103.33,109.36c8.38,9.7,9,20.96,5.23,30.38l549.24,395.91c0.71,0.54,1.43,1.1,2.14,1.64
		c134.49,101.01,232.14,65.72,308.76-36.3C1620.36,1746.41,1574.03,1577.08,1445.1,1475.35z"/>
	<path class="st2" d="M693.27,488.7c6.02-50.62,2.47-93.15-1.34-98.47c-1.17-2.56-2.79-4.59-4.92-5.97
		c-15.78-10.18-52.44,18.56-81.89,64.2c-29.45,45.64-38.01,97.78-22.24,107.96c9.18,5.93,30.97,31.5,48.77,15.4
		c0.39-0.36,0.78-0.75,1.16-1.19c2.51,2.81,5.41,4.71,8.68,5.5C661.8,581.06,684.35,563.7,693.27,488.7z"/>
	<path class="st1" d="M670.83,421.53c-1.08-2.37-2.57-4.26-4.47-5.62c-16.4,10.85-35.79,31.54-52.78,57.87
		c-29.45,45.64-38.01,97.78-22.24,107.96c9.18,5.93,30.97,31.51,48.77,15.4c0.39-0.35,0.78-0.75,1.16-1.19
		c1.33,1.49,2.78,2.71,4.33,3.65c11.41-11.46,21.34-35.61,26.57-79.61C678.19,469.37,674.64,426.85,670.83,421.53z"/>
	<path class="st2" d="M803.54,495.27c4.64-50.77,16.96-91.62,21.79-96.03c1.68-2.26,3.69-3.91,6.06-4.81
		c17.55-6.68,47.44,29.06,66.75,79.82c19.32,50.76,16.85,103.55-0.7,110.23c-10.21,3.89-36.85,24.37-50.9,4.92
		c-0.31-0.43-0.6-0.9-0.88-1.41c-3.04,2.23-6.27,3.48-9.63,3.57C815.12,592.16,796.67,570.49,803.54,495.27z"/>
	<path class="st1" d="M842.01,428.11c1.55-2.1,3.4-3.63,5.55-4.57c13.78,14.02,28.44,38.29,39.59,67.58
		c19.32,50.76,16.85,103.55-0.7,110.23c-10.21,3.89-36.85,24.38-50.9,4.92c-0.31-0.43-0.6-0.9-0.88-1.41
		c-1.62,1.18-3.29,2.07-5,2.67c-8.78-13.59-13.47-39.27-9.44-83.39C824.86,473.37,837.18,432.52,842.01,428.11z"/>
	<path class="st2" d="M942.94,680.89c-6.68,98.68-106.5,123.49-225.42,115.43c-118.92-8.05-211.9-45.92-205.22-144.6
		c6.68-98.68,108.5-172.15,227.42-164.1C858.64,495.68,949.62,582.21,942.94,680.89z"/>
	<path class="st1" d="M1274.68,1704.81c-1.61-72.41-34.15-140.67-89.38-187.52l-231.27-196.15l-8.99,19.37
		c-8.45,18.21-27.83,28.73-47.71,25.9l-55.53-7.92c-24.88-3.55-36.68-29.58-41.98-54.15c-3.3-15.33,1.77-35.99,2.33-48.87
		C803.21,1231.41,815,1160,815,1160c13.52-118.6,31.76-199.61,141.43-242.84c-31-63.88-19.65-202.43-19.65-202.43
		c-11.69-15.43-30.39-29.9-53.59-39.93c-8.9-3.85-17.83-6.76-26.53-8.78c9.66-11.19,15.63-26.46,15.63-43.33
		c0-34.27-24.57-62.06-54.87-62.06c-30.3,0-54.87,27.78-54.87,62.06c0,12.14,3.13,23.42,8.45,32.98
		c-14.95-3.65-30.67-6.28-47.01-7.64c-13.05-1.09-25.85-1.31-38.3-0.8c9.42-11.14,15.23-26.21,15.23-42.84
		c0-34.27-24.57-62.06-54.87-62.06c-30.3,0-54.87,27.78-54.87,62.06c0,9.28,1.85,18.06,5.08,25.97c-9.11-0.3-18.66,0.23-28.45,1.72
		c-21.59,3.29-40.78,10.66-55.43,20.32v0l-57.7,379.63c-15.01,78.65-2.47,160.08,35.52,230.57v0
		c89.71,166.46,222.62,305.65,384.77,402.94c0,0,390.46,237.71,404.31,245.58L1274.68,1704.81z"/>
	<path class="st3" d="M795.6,693.7c-12.2,10.98-30.12,13.5-45.46,8.74c-6.74-2.09-13.63-6.19-18.62-11.58
		c-5.61,2.73-11.6,5.75-15.53,6.83c-17.04,4.71-36.88,1.57-47.19-14.03c-2.59-3.92-4.2-8.11-4.98-12.38
		c-1.87,4.43-3.13,9.12-3.5,14.06c-2.29,30.22,26.41,57.03,64.11,59.89c37.7,2.86,70.11-19.32,72.41-49.54
		c0.08-1.08,0.04-2.15,0.04-3.22C796.45,692.88,796.04,693.3,795.6,693.7z"/>
	<path class="st2" d="M657.66,604.65c-1.42,8.63-6.2,15.02-10.68,14.28c-4.47-0.74-6.95-8.33-5.53-16.95
		c1.42-8.63,6.2-15.02,10.67-14.28C656.61,588.43,659.09,596.02,657.66,604.65z"/>
	<path class="st2" d="M824.09,620.91c-1.51,8.61-6.35,14.96-10.82,14.17c-4.47-0.78-6.86-8.4-5.35-17.01
		c1.51-8.61,6.35-14.96,10.82-14.17C823.21,604.68,825.6,612.3,824.09,620.91z"/>
	<path class="st2" d="M697.55,708.78c-4.2,0-8.43-0.61-12.56-1.87c-23.09-7.09-28.93-31.05-29.17-32.07
		c-0.85-3.63,1.41-7.26,5.04-8.11c3.63-0.85,7.26,1.4,8.11,5.04c0.04,0.16,4.34,17.43,19.98,22.23c9.89,3.04,24.14,0.64,31.07-9.8
		c4.6-6.93,4.2-14.71,3.55-18.73c-0.59-3.68,1.91-7.15,5.59-7.74c3.68-0.6,7.15,1.91,7.74,5.59c0.96,5.97,1.51,17.59-5.64,28.35
		C724.1,702.48,711.06,708.77,697.55,708.78z"/>
	<path class="st2" d="M764.61,717.83c-10.63,0-21.53-4.14-29.69-11.97c-17.41-16.71-11.86-40.74-11.62-41.75
		c0.88-3.63,4.52-5.86,8.15-4.98c3.63,0.87,5.85,4.52,4.98,8.15c-0.04,0.17-3.96,17.52,7.84,28.84c7.47,7.17,21.28,11.44,32.16,5.24
		c7.22-4.12,10.37-11.25,11.6-15.13c1.13-3.55,4.93-5.51,8.48-4.39c3.55,1.13,5.52,4.93,4.39,8.48
		c-1.83,5.76-6.58,16.39-17.79,22.78C777.51,716.28,771.11,717.83,764.61,717.83z"/>
	<path class="st4" d="M928.9,886.57l-436.24-11.51c-7.75-0.2-13.86-6.65-13.66-14.4l0.64-24.26c0.2-7.75,6.65-13.86,14.4-13.66
		l436.24,11.51c7.75,0.2,13.86,6.65,13.66,14.4l-0.64,24.26C943.09,880.66,936.65,886.78,928.9,886.57z"/>
	<path class="st2" d="M745.46,673.48c0-6.22,5.04-11.26,11.26-11.26c3.17,0,6.02,1.32,8.07,3.43c4.46-4.93,7.26-10.17,7.61-14.47
		c1.02-12.34-17.43-23.93-41.2-25.9c-23.78-1.97-43.88,6.43-44.9,18.77c-0.41,4.95,2.24,11.66,7.06,18.05
		c2.01-1.87,4.68-3.04,7.65-3.04c6.22,0,11.26,5.04,11.26,11.26c0,2.36-0.73,4.54-1.96,6.34c5,2.66,10.57,4.49,16.53,4.98
		c7.01,0.58,13.74-0.79,19.8-3.28C745.9,676.88,745.46,675.24,745.46,673.48z"/>
	<path class="st1" d="M590.48,851.88c0,4.78-3.87,8.65-8.65,8.65c-4.78,0-8.65-3.87-8.65-8.65c0-4.78,3.87-8.65,8.65-8.65
		C586.61,843.23,590.48,847.1,590.48,851.88z"/>
	<path class="st1" d="M846.55,860.88c0,4.78-3.87,8.65-8.65,8.65s-8.65-3.87-8.65-8.65c0-4.78,3.87-8.65,8.65-8.65
		S846.55,856.1,846.55,860.88z"/>
	
		<ellipse transform="matrix(0.5095 -0.8605 0.8605 0.5095 -450.5241 1068.6243)" class="st3" cx="712.04" cy="929.47" rx="34.82" ry="34.82"/>
	<path class="st2" d="M712.75,916.11c-0.06,0-0.13,0-0.19,0c-3.73-0.1-6.67-3.21-6.57-6.93l1.48-54.03c0.1-3.73,3.21-6.78,6.93-6.57
		c3.73,0.1,6.67,3.21,6.57,6.93l-1.48,54.03C719.4,913.2,716.39,916.11,712.75,916.11z"/>
	<path class="st2" d="M1588.28,1365.59h-163.14c-1.86,0-3.38,1.51-3.38,3.38c0,1.87,1.51,3.38,3.38,3.38h164.14
		C1588.97,1370.08,1588.62,1367.83,1588.28,1365.59z M1450.88,1103.89H1292.6c-1.86,0-3.38,1.51-3.38,3.38
		c0,1.87,1.51,3.38,3.38,3.38h165.28C1455.57,1108.37,1453.24,1106.12,1450.88,1103.89z M1435.27,1466.04
		c-1.86,0-3.38,1.51-3.38,3.38c0,1.87,1.51,3.38,3.38,3.38h156.96l0.3-6.75H1435.27z M1545.61,1231.36h-150.87
		c-1.86,0-3.38,1.51-3.38,3.38c0,1.87,1.51,3.38,3.38,3.38h154.17C1547.84,1235.85,1546.74,1233.6,1545.61,1231.36z
		 M1518.28,1184.09h-151.39c-1.86,0-3.38,1.51-3.38,3.38c0,1.87,1.51,3.38,3.38,3.38h155.77
		C1521.22,1188.58,1519.76,1186.33,1518.28,1184.09z"/>
	<path class="st2" d="M1492.41,1903.64l-267.02-396.18l-29.74,118.56c-20.47,81.6-4.13,168.08,44.7,236.59l62.62,87.68
		l-146.04,116.78c-9.39,6.78-19.43,29.58-5.15,50.71l13.78-8.96L1492.41,1903.64z"/>
	<path class="st2" d="M799.67,1301.33l21.79,418.98c0.27,5.69-0.19,11.39-1.36,16.97l-41.6,200.7
		c-2.18,10.18,1.97,30.22,20.79,38.62c1.99,1.07,4.16,1.88,6.49,2.33l0.01-0.04c0.13,0.03,0.25,0.08,0.38,0.12l71.41-268.29
		l110.02-402.02c9.18-33.54-8.71-68.55-41.27-80.76l-54.87-20.57C846.21,1190.39,797.42,1253.07,799.67,1301.33z"/>
</g>
</svg>
