<?xml version="1.0" encoding="UTF-8"?><svg xmlns="http://www.w3.org/2000/svg" xmlns:xlink="http://www.w3.org/1999/xlink" width="375" zoomAndPan="magnify" viewBox="0 0 375 374.999991" height="374.999991" preserveAspectRatio="xMidYMid meet" version="1.0"><defs><clipPath id="clip-0"><path d="M 153 246 L 182 246 L 182 261.890625 L 153 261.890625 Z M 153 246 " clip-rule="nonzero"/></clipPath><clipPath id="clip-1"><path d="M 160 247 L 165 247 L 165 261.890625 L 160 261.890625 Z M 160 247 " clip-rule="nonzero"/></clipPath><clipPath id="clip-2"><path d="M 171 247 L 176 247 L 176 261.890625 L 171 261.890625 Z M 171 247 " clip-rule="nonzero"/></clipPath><clipPath id="clip-3"><path d="M 201 213 L 266 213 L 266 261.890625 L 201 261.890625 Z M 201 213 " clip-rule="nonzero"/></clipPath><clipPath id="clip-4"><path d="M 196 246 L 224 246 L 224 261.890625 L 196 261.890625 Z M 196 246 " clip-rule="nonzero"/></clipPath><clipPath id="clip-5"><path d="M 202 247 L 207 247 L 207 261.890625 L 202 261.890625 Z M 202 247 " clip-rule="nonzero"/></clipPath><clipPath id="clip-6"><path d="M 213 247 L 218 247 L 218 261.890625 L 213 261.890625 Z M 213 247 " clip-rule="nonzero"/></clipPath><clipPath id="clip-7"><path d="M 288 148 L 341 148 L 341 261.890625 L 288 261.890625 Z M 288 148 " clip-rule="nonzero"/></clipPath><clipPath id="clip-8"><path d="M 299 246 L 327 246 L 327 261.890625 L 299 261.890625 Z M 299 246 " clip-rule="nonzero"/></clipPath><clipPath id="clip-9"><path d="M 305 247 L 310 247 L 310 261.890625 L 305 261.890625 Z M 305 247 " clip-rule="nonzero"/></clipPath><clipPath id="clip-10"><path d="M 316 247 L 321 247 L 321 261.890625 L 316 261.890625 Z M 316 247 " clip-rule="nonzero"/></clipPath><clipPath id="clip-11"><path d="M 292 88.640625 L 310 88.640625 L 310 122 L 292 122 Z M 292 88.640625 " clip-rule="nonzero"/></clipPath></defs><rect x="-37.5" width="450" fill="rgb(100%, 100%, 100%)" y="-37.499999" height="449.999989" fill-opacity="1"/><rect x="-37.5" width="450" fill="rgb(100%, 100%, 100%)" y="-37.499999" height="449.999989" fill-opacity="1"/><rect x="-37.5" width="450" fill="rgb(100%, 100%, 100%)" y="-37.499999" height="449.999989" fill-opacity="1"/><path fill="rgb(27.059937%, 29.40979%, 31.759644%)" d="M 139.632812 252.105469 C 136.59375 252.105469 132.027344 252.105469 132.027344 252.105469 C 123.195312 251.558594 125.992188 244.589844 123.863281 240.140625 C 110.183594 211.539062 122.386719 197.886719 131.503906 199.574219 C 136.804688 200.550781 140.167969 206.488281 139.183594 212.261719 C 137.785156 220.414062 135.492188 240.253906 135.492188 240.253906 C 143.742188 240.253906 147.921875 252.105469 139.632812 252.105469 " fill-opacity="1" fill-rule="nonzero"/><path fill="rgb(18.429565%, 19.219971%, 21.569824%)" d="M 143.757812 249.796875 C 143.871094 249.246094 143.75 248.707031 143.542969 248.21875 C 143.320312 247.730469 142.980469 247.285156 142.554688 246.9375 C 141.703125 246.246094 140.457031 245.972656 139.472656 246.496094 C 139.933594 246.800781 140.335938 247.027344 140.691406 247.273438 C 141.054688 247.511719 141.375 247.746094 141.695312 248.003906 C 142.015625 248.261719 142.328125 248.53125 142.664062 248.832031 C 142.992188 249.128906 143.335938 249.441406 143.757812 249.796875 " fill-opacity="1" fill-rule="nonzero"/><path fill="rgb(18.429565%, 19.219971%, 21.569824%)" d="M 140.789062 251.875 C 141 251.355469 140.984375 250.804688 140.851562 250.28125 C 140.714844 249.765625 140.433594 249.269531 140.039062 248.871094 C 139.261719 248.066406 138.023438 247.71875 137.019531 248.175781 C 137.457031 248.511719 137.839844 248.765625 138.167969 249.03125 C 138.503906 249.292969 138.792969 249.550781 139.070312 249.832031 C 139.347656 250.109375 139.609375 250.410156 139.882812 250.746094 L 140.789062 251.875 " fill-opacity="1" fill-rule="nonzero"/><path fill="rgb(27.059937%, 29.40979%, 31.759644%)" d="M 85.179688 250.359375 C 82.140625 250.359375 77.570312 250.359375 77.570312 250.359375 C 68.738281 249.8125 71.535156 242.84375 69.410156 238.394531 C 66.730469 232.789062 64.402344 230.441406 63.671875 225.953125 C 63.210938 223.160156 66.535156 221.5 65.890625 219.914062 C 54.757812 192.414062 72.476562 185.195312 79.140625 185.554688 C 85.40625 185.898438 94.070312 189.09375 95.933594 197.753906 C 97.980469 207.265625 94.566406 215.984375 86.472656 219.742188 C 72.625 226.175781 81.039062 238.507812 81.039062 238.507812 C 89.285156 238.507812 93.464844 250.359375 85.179688 250.359375 " fill-opacity="1" fill-rule="nonzero"/><path fill="rgb(18.429565%, 19.219971%, 21.569824%)" d="M 88.996094 247.917969 C 89.105469 247.363281 88.988281 246.828125 88.777344 246.335938 C 88.558594 245.851562 88.222656 245.40625 87.792969 245.058594 C 86.941406 244.363281 85.695312 244.09375 84.710938 244.613281 C 85.175781 244.917969 85.570312 245.148438 85.933594 245.390625 C 86.292969 245.628906 86.617188 245.867188 86.933594 246.121094 C 87.25 246.378906 87.570312 246.652344 87.898438 246.949219 C 88.234375 247.246094 88.578125 247.566406 88.996094 247.917969 " fill-opacity="1" fill-rule="nonzero"/><path fill="rgb(18.429565%, 19.219971%, 21.569824%)" d="M 86.03125 249.992188 C 86.242188 249.472656 86.21875 248.925781 86.089844 248.40625 C 85.953125 247.882812 85.675781 247.390625 85.28125 246.992188 C 84.496094 246.1875 83.265625 245.839844 82.257812 246.292969 C 82.695312 246.632812 83.074219 246.886719 83.410156 247.148438 C 83.742188 247.410156 84.027344 247.667969 84.308594 247.949219 C 84.585938 248.226562 84.851562 248.53125 85.125 248.867188 L 86.03125 249.992188 " fill-opacity="1" fill-rule="nonzero"/><path fill="rgb(44.309998%, 48.239136%, 50.588989%)" d="M 37.785156 194.683594 C 37.785156 186.082031 46.980469 165.671875 66.222656 168.878906 C 75.015625 170.34375 79.007812 174.550781 89.863281 178.480469 C 103.625 183.457031 110.070312 176.816406 110.070312 176.816406 L 142.636719 184.992188 C 145.777344 206.949219 132.910156 231.023438 90.957031 231.023438 C 65.414062 231.023438 37.785156 221.617188 37.785156 194.683594 " fill-opacity="1" fill-rule="nonzero"/><path fill="rgb(44.309998%, 48.239136%, 50.588989%)" d="M 44.621094 187.378906 C 46.324219 187.378906 47.960938 186.417969 48.738281 184.777344 C 49.824219 182.507812 48.859375 179.800781 46.597656 178.714844 C 46.441406 178.632812 37.65625 174.265625 39.773438 168.621094 C 40.195312 167.503906 40.761719 166.144531 41.417969 164.566406 C 43.929688 158.5625 47.363281 150.34375 48.277344 142.105469 C 49.789062 128.511719 43.429688 121.722656 37.820312 118.425781 C 35.652344 117.140625 32.851562 117.867188 31.574219 120.035156 C 30.296875 122.203125 31.019531 125 33.1875 126.273438 C 43.8125 132.53125 38.660156 147.507812 33 161.054688 C 32.308594 162.714844 31.710938 164.144531 31.234375 165.417969 C 27.183594 176.210938 36.9375 184.210938 42.664062 186.933594 C 43.296875 187.234375 43.964844 187.378906 44.621094 187.378906 " fill-opacity="1" fill-rule="nonzero"/><path fill="rgb(27.059937%, 29.40979%, 31.759644%)" d="M 46.695312 149.925781 C 46.695312 149.925781 45.125 151.835938 42.023438 152.660156 C 39.457031 153.34375 36.589844 151.75 36.589844 151.75 C 40.183594 141.171875 41.40625 131.113281 33.1875 126.273438 C 31.019531 125 30.296875 122.203125 31.574219 120.035156 C 32.851562 117.867188 35.652344 117.140625 37.820312 118.425781 C 43.429688 121.722656 49.789062 128.511719 48.277344 142.105469 C 47.914062 145.371094 47.640625 146.804688 46.695312 149.925781 " fill-opacity="1" fill-rule="nonzero"/><path fill="rgb(68.238831%, 70.588684%, 71.759033%)" d="M 40.878906 208.832031 C 61.460938 224.777344 87.378906 219.714844 107.292969 214.84375 C 128.730469 209.601562 127.277344 182.839844 128.144531 181.351562 L 142.636719 184.992188 C 145.777344 206.949219 132.910156 231.023438 90.957031 231.023438 C 70.535156 231.023438 48.777344 225.003906 40.878906 208.832031 " fill-opacity="1" fill-rule="nonzero"/><path fill="rgb(44.309998%, 48.239136%, 50.588989%)" d="M 61.234375 251.726562 C 58.195312 251.726562 53.628906 251.726562 53.628906 251.726562 C 44.796875 251.179688 47.59375 244.210938 45.464844 239.761719 C 42.785156 234.15625 40.457031 231.808594 39.726562 227.320312 C 39.269531 224.53125 42.59375 222.863281 41.953125 221.277344 C 30.8125 193.777344 48.542969 186.5625 55.191406 186.921875 C 61.464844 187.265625 70.128906 190.457031 71.992188 199.121094 C 74.035156 208.632812 70.621094 217.351562 62.527344 221.109375 C 48.6875 227.542969 57.097656 239.875 57.097656 239.875 C 65.339844 239.875 69.523438 251.726562 61.234375 251.726562 " fill-opacity="1" fill-rule="nonzero"/><path fill="rgb(18.429565%, 19.219971%, 21.569824%)" d="M 65.058594 249.289062 C 65.164062 248.730469 65.046875 248.195312 64.839844 247.703125 C 64.621094 247.21875 64.277344 246.769531 63.855469 246.425781 C 63 245.734375 61.75 245.464844 60.765625 245.984375 C 61.230469 246.289062 61.632812 246.515625 61.988281 246.761719 C 62.351562 246.996094 62.675781 247.234375 62.996094 247.492188 C 63.3125 247.746094 63.625 248.019531 63.957031 248.316406 C 64.289062 248.613281 64.632812 248.929688 65.058594 249.289062 " fill-opacity="1" fill-rule="nonzero"/><path fill="rgb(18.429565%, 19.219971%, 21.569824%)" d="M 62.085938 251.359375 C 62.300781 250.839844 62.277344 250.289062 62.148438 249.769531 C 62.011719 249.246094 61.734375 248.753906 61.34375 248.355469 C 60.558594 247.554688 59.316406 247.210938 58.3125 247.660156 C 58.757812 248 59.132812 248.253906 59.464844 248.515625 C 59.800781 248.777344 60.089844 249.039062 60.367188 249.320312 C 60.644531 249.59375 60.910156 249.898438 61.183594 250.234375 L 62.085938 251.359375 " fill-opacity="1" fill-rule="nonzero"/><path fill="rgb(44.309998%, 48.239136%, 50.588989%)" d="M 120.671875 260.3125 C 117.632812 260.3125 113.066406 260.3125 113.066406 260.3125 C 104.234375 259.765625 107.03125 252.800781 104.902344 248.347656 C 91.214844 219.742188 103.421875 206.09375 112.542969 207.78125 C 117.839844 208.761719 121.207031 214.691406 120.214844 220.464844 C 118.824219 228.613281 116.535156 248.460938 116.535156 248.460938 C 124.78125 248.460938 128.957031 260.3125 120.671875 260.3125 " fill-opacity="1" fill-rule="nonzero"/><path fill="rgb(18.429565%, 19.219971%, 21.569824%)" d="M 124.796875 258.003906 C 124.910156 257.449219 124.785156 256.914062 124.574219 256.421875 C 124.359375 255.933594 124.023438 255.492188 123.589844 255.144531 C 122.738281 254.449219 121.492188 254.175781 120.511719 254.695312 C 120.976562 255.003906 121.371094 255.234375 121.730469 255.476562 C 122.089844 255.714844 122.414062 255.953125 122.734375 256.207031 C 123.054688 256.46875 123.367188 256.738281 123.699219 257.035156 C 124.03125 257.335938 124.375 257.648438 124.796875 258.003906 " fill-opacity="1" fill-rule="nonzero"/><path fill="rgb(18.429565%, 19.219971%, 21.569824%)" d="M 121.828125 260.082031 C 122.039062 259.5625 122.019531 259.011719 121.890625 258.488281 C 121.75 257.972656 121.472656 257.472656 121.082031 257.078125 C 120.300781 256.269531 119.0625 255.929688 118.058594 256.378906 C 118.492188 256.714844 118.875 256.96875 119.210938 257.238281 C 119.542969 257.496094 119.828125 257.757812 120.109375 258.035156 C 120.382812 258.3125 120.648438 258.617188 120.921875 258.953125 L 121.828125 260.082031 " fill-opacity="1" fill-rule="nonzero"/><path fill="rgb(34.899902%, 39.219666%, 42.349243%)" d="M 126.863281 190.988281 C 112.753906 186.152344 109.222656 177.832031 109.613281 177.21875 C 112.023438 182.117188 117.945312 185.832031 124.976562 188.25 C 125.710938 188.503906 126.453125 188.742188 127.207031 188.964844 C 127.109375 189.617188 126.996094 190.292969 126.863281 190.988281 " fill-opacity="1" fill-rule="nonzero"/><path fill="rgb(52.549744%, 56.469727%, 58.428955%)" d="M 135.628906 192.296875 C 132.925781 192.296875 129.863281 192 127.121094 191.078125 C 127.035156 191.050781 126.949219 191.019531 126.863281 190.988281 C 126.996094 190.292969 127.109375 189.617188 127.207031 188.964844 C 128.648438 189.394531 130.117188 189.765625 131.605469 190.089844 C 134.585938 190.734375 137.625 191.160156 140.570312 191.316406 C 141.375 191.359375 142.175781 191.378906 142.964844 191.378906 C 143.003906 191.378906 143.042969 191.378906 143.078125 191.378906 C 143.082031 191.386719 143.082031 191.394531 143.082031 191.402344 C 143.105469 191.59375 139.789062 192.296875 135.628906 192.296875 " fill-opacity="1" fill-rule="nonzero"/><path fill="rgb(44.309998%, 48.239136%, 50.588989%)" d="M 115.082031 158.976562 C 115.082031 158.976562 111.6875 143.984375 118.585938 139.300781 C 118.585938 139.300781 129.527344 141.3125 132.550781 149.695312 C 132.550781 149.695312 126.203125 158.042969 115.082031 158.976562 " fill-opacity="1" fill-rule="nonzero"/><path fill="rgb(68.238831%, 70.588684%, 71.759033%)" d="M 119.046875 157.335938 C 119.046875 157.335938 116.894531 147.8125 121.269531 144.839844 C 121.269531 144.839844 128.222656 146.117188 130.140625 151.441406 C 130.140625 151.441406 126.109375 156.742188 119.046875 157.335938 " fill-opacity="1" fill-rule="nonzero"/><path fill="rgb(44.309998%, 48.239136%, 50.588989%)" d="M 159.585938 168.625 C 159.585938 168.625 168.882812 156.378906 164.550781 149.261719 C 164.550781 149.261719 153.753906 146.5625 147.535156 152.941406 C 147.535156 152.941406 149.851562 163.167969 159.585938 168.625 " fill-opacity="1" fill-rule="nonzero"/><path fill="rgb(68.238831%, 70.588684%, 71.759033%)" d="M 156.660156 165.488281 C 156.660156 165.488281 162.566406 157.714844 159.8125 153.191406 C 159.8125 153.191406 152.957031 151.476562 149 155.527344 C 149 155.527344 150.472656 162.027344 156.660156 165.488281 " fill-opacity="1" fill-rule="nonzero"/><path fill="rgb(44.309998%, 48.239136%, 50.588989%)" d="M 109.609375 167.152344 C 104.488281 179.089844 117.378906 187.003906 131.605469 190.089844 C 145.839844 193.171875 161.519531 191.289062 161.136719 178.320312 C 160.699219 163.554688 151.277344 152.078125 140.367188 149.714844 C 129.457031 147.347656 115.640625 153.085938 109.609375 167.152344 " fill-opacity="1" fill-rule="nonzero"/><path fill="rgb(68.238831%, 70.588684%, 71.759033%)" d="M 136.253906 168.984375 C 148.289062 171.59375 156.726562 179.78125 155.09375 187.273438 C 154.945312 187.960938 154.71875 188.621094 154.414062 189.242188 C 148.605469 191.992188 139.863281 191.882812 131.605469 190.089844 C 123.265625 188.285156 115.394531 184.8125 111.335938 179.847656 C 111.320312 179.171875 111.382812 178.5 111.53125 177.832031 C 113.152344 170.339844 124.222656 166.378906 136.253906 168.984375 " fill-opacity="1" fill-rule="nonzero"/><path fill="rgb(18.429565%, 19.219971%, 21.569824%)" d="M 120.984375 162.652344 C 120.613281 164.359375 121.195312 165.9375 122.28125 166.175781 C 123.367188 166.410156 124.550781 165.210938 124.914062 163.503906 C 125.292969 161.792969 124.710938 160.21875 123.621094 159.980469 C 122.539062 159.746094 121.355469 160.941406 120.984375 162.652344 " fill-opacity="1" fill-rule="nonzero"/><path fill="rgb(18.429565%, 19.219971%, 21.569824%)" d="M 149.578125 168.847656 C 149.207031 170.558594 149.785156 172.140625 150.878906 172.375 C 151.960938 172.609375 153.144531 171.414062 153.515625 169.703125 C 153.882812 167.992188 153.304688 166.414062 152.21875 166.179688 C 151.128906 165.945312 149.945312 167.140625 149.578125 168.847656 " fill-opacity="1" fill-rule="nonzero"/><path fill="rgb(95.689392%, 41.569519%, 49.798584%)" d="M 135.273438 185.964844 L 135.027344 187.042969 C 134.742188 188.253906 133.53125 189.015625 132.316406 188.730469 C 131.101562 188.449219 130.339844 187.238281 130.625 186.023438 L 130.859375 185.007812 C 130.859375 185.007812 131.929688 184.761719 132.675781 183.953125 C 133.464844 183.101562 133.972656 181.554688 133.972656 181.554688 C 133.972656 181.554688 133.785156 183.019531 134.085938 184.203125 C 134.433594 185.535156 135.273438 185.964844 135.273438 185.964844 " fill-opacity="1" fill-rule="nonzero"/><path fill="rgb(97.24884%, 61.178589%, 65.879822%)" d="M 132.398438 188.464844 C 132.394531 188.097656 132.429688 187.738281 132.476562 187.382812 C 132.53125 187.023438 132.59375 186.671875 132.675781 186.320312 C 132.753906 185.972656 132.851562 185.628906 132.96875 185.285156 C 133.078125 184.945312 133.199219 184.605469 133.371094 184.269531 C 133.378906 184.644531 133.339844 185 133.289062 185.359375 C 133.238281 185.714844 133.175781 186.070312 133.09375 186.417969 C 133.011719 186.769531 132.914062 187.113281 132.804688 187.460938 C 132.691406 187.796875 132.566406 188.136719 132.398438 188.464844 " fill-opacity="1" fill-rule="nonzero"/><path fill="rgb(18.429565%, 19.219971%, 21.569824%)" d="M 131.195312 184.988281 C 131.988281 184.988281 132.707031 184.652344 133.296875 184.007812 C 134.035156 183.1875 134.320312 182.132812 134.390625 181.832031 L 135.945312 175.136719 L 135.0625 174.929688 L 133.503906 181.625 C 133.445312 181.875 133.210938 182.738281 132.621094 183.394531 C 132.082031 183.988281 131.449219 184.191406 130.6875 184.015625 C 129.039062 183.632812 128.683594 182.515625 128.894531 181.605469 L 129.289062 179.902344 C 129.347656 179.660156 129.191406 179.414062 128.949219 179.355469 C 128.699219 179.296875 128.457031 179.453125 128.402344 179.699219 L 128.007812 181.394531 C 127.683594 182.78125 128.324219 184.402344 130.480469 184.902344 C 130.726562 184.957031 130.960938 184.988281 131.195312 184.988281 " fill-opacity="1" fill-rule="nonzero"/><path fill="rgb(18.429565%, 19.219971%, 21.569824%)" d="M 136.625 186.21875 C 137.402344 186.21875 137.941406 185.976562 138.292969 185.730469 C 139.046875 185.207031 139.320312 184.445312 139.414062 184.042969 L 139.808594 182.34375 C 139.863281 182.097656 139.710938 181.855469 139.464844 181.796875 C 139.222656 181.738281 138.972656 181.890625 138.917969 182.140625 L 138.527344 183.835938 C 138.414062 184.308594 138.140625 184.726562 137.777344 184.984375 C 137.289062 185.316406 136.640625 185.394531 135.855469 185.210938 C 135.089844 185.035156 134.609375 184.578125 134.390625 183.800781 C 134.148438 182.953125 134.316406 182.078125 134.378906 181.828125 L 135.929688 175.132812 L 135.039062 174.925781 L 133.488281 181.621094 C 133.417969 181.925781 133.210938 182.996094 133.515625 184.054688 C 133.832031 185.144531 134.5625 185.847656 135.644531 186.101562 C 136.011719 186.183594 136.332031 186.21875 136.625 186.21875 " fill-opacity="1" fill-rule="nonzero"/><path fill="rgb(18.429565%, 19.219971%, 21.569824%)" d="M 129.113281 173.777344 C 128.589844 176.015625 131.007812 178.484375 134.5 179.296875 C 138 180.109375 141.253906 178.953125 141.769531 176.714844 C 142.292969 174.472656 139.878906 172.003906 136.378906 171.195312 C 132.882812 170.382812 129.625 171.539062 129.113281 173.777344 " fill-opacity="1" fill-rule="nonzero"/><path fill="rgb(18.429565%, 19.219971%, 21.569824%)" d="M 127.972656 171.371094 C 128.105469 171.371094 128.238281 171.308594 128.332031 171.199219 C 128.488281 170.996094 128.453125 170.710938 128.257812 170.554688 C 128.128906 170.460938 115.703125 160.75 103.285156 160.898438 C 103.039062 160.898438 102.832031 161.105469 102.839844 161.359375 C 102.84375 161.605469 103.046875 161.808594 103.292969 161.808594 L 103.296875 161.808594 C 103.398438 161.808594 103.492188 161.804688 103.585938 161.804688 C 115.5625 161.804688 127.570312 171.175781 127.691406 171.273438 C 127.773438 171.335938 127.875 171.371094 127.972656 171.371094 " fill-opacity="1" fill-rule="nonzero"/><path fill="rgb(18.429565%, 19.219971%, 21.569824%)" d="M 126.953125 172.5625 C 127.113281 172.5625 127.265625 172.480469 127.347656 172.335938 C 127.472656 172.113281 127.402344 171.835938 127.183594 171.714844 C 127.03125 171.625 112.40625 163.332031 99.714844 163.980469 C 99.464844 163.992188 99.273438 164.207031 99.28125 164.457031 C 99.289062 164.707031 99.515625 164.902344 99.761719 164.890625 C 112.183594 164.257812 126.585938 172.417969 126.726562 172.5 L 126.953125 172.5625 " fill-opacity="1" fill-rule="nonzero"/><path fill="rgb(18.429565%, 19.219971%, 21.569824%)" d="M 126.527344 174.105469 C 126.691406 174.105469 126.851562 174.015625 126.933594 173.855469 C 127.050781 173.632812 126.957031 173.355469 126.734375 173.246094 C 126.613281 173.183594 114.804688 167.285156 100.996094 168.113281 C 100.746094 168.121094 100.554688 168.339844 100.566406 168.589844 C 100.585938 168.84375 100.804688 169.035156 101.050781 169.019531 C 114.601562 168.214844 126.207031 173.996094 126.320312 174.054688 L 126.527344 174.105469 " fill-opacity="1" fill-rule="nonzero"/><path fill="rgb(18.429565%, 19.219971%, 21.569824%)" d="M 126.289062 175.628906 C 126.484375 175.628906 126.667969 175.5 126.726562 175.308594 C 126.804688 175.066406 126.667969 174.8125 126.429688 174.738281 C 126.3125 174.703125 115.011719 171.242188 105.191406 172.242188 C 104.941406 172.265625 104.761719 172.488281 104.785156 172.742188 C 104.8125 172.992188 105.035156 173.179688 105.289062 173.148438 C 114.917969 172.167969 126.046875 175.570312 126.15625 175.609375 L 126.289062 175.628906 " fill-opacity="1" fill-rule="nonzero"/><path fill="rgb(18.429565%, 19.219971%, 21.569824%)" d="M 169.332031 181.785156 C 169.472656 181.785156 169.613281 181.714844 169.707031 181.585938 C 169.847656 181.382812 169.796875 181.09375 169.589844 180.957031 C 159.371094 173.929688 143.625 175.089844 143.464844 175.101562 C 143.214844 175.121094 143.027344 175.339844 143.046875 175.59375 C 143.066406 175.84375 143.277344 176.027344 143.535156 176.007812 C 143.695312 175.996094 159.125 174.867188 169.070312 181.703125 C 169.148438 181.757812 169.242188 181.785156 169.332031 181.785156 " fill-opacity="1" fill-rule="nonzero"/><path fill="rgb(18.429565%, 19.219971%, 21.569824%)" d="M 170.464844 186.304688 C 170.601562 186.304688 170.746094 186.238281 170.832031 186.121094 C 170.984375 185.917969 170.941406 185.632812 170.742188 185.480469 C 160.550781 177.886719 143.78125 176.648438 143.613281 176.636719 C 143.359375 176.621094 143.136719 176.808594 143.125 177.0625 C 143.101562 177.3125 143.292969 177.53125 143.546875 177.542969 C 143.710938 177.558594 160.21875 178.78125 170.195312 186.214844 C 170.277344 186.277344 170.371094 186.304688 170.464844 186.304688 " fill-opacity="1" fill-rule="nonzero"/><path fill="rgb(18.429565%, 19.219971%, 21.569824%)" d="M 167.132812 189.09375 C 167.269531 189.09375 167.402344 189.03125 167.496094 188.910156 C 167.652344 188.710938 167.609375 188.425781 167.402344 188.277344 C 156.398438 179.925781 143.292969 178.246094 143.164062 178.230469 C 142.914062 178.203125 142.683594 178.378906 142.660156 178.628906 C 142.625 178.875 142.800781 179.105469 143.050781 179.136719 C 143.183594 179.152344 156.046875 180.800781 166.855469 189 C 166.9375 189.0625 167.035156 189.09375 167.132812 189.09375 " fill-opacity="1" fill-rule="nonzero"/><path fill="rgb(18.429565%, 19.219971%, 21.569824%)" d="M 161.179688 190.117188 C 161.308594 190.117188 161.4375 190.0625 161.53125 189.957031 C 161.691406 189.761719 161.664062 189.472656 161.46875 189.3125 C 153.867188 183.023438 142.550781 179.613281 142.4375 179.582031 C 142.191406 179.507812 141.9375 179.644531 141.867188 179.886719 C 141.796875 180.128906 141.933594 180.382812 142.175781 180.453125 C 142.285156 180.488281 153.4375 183.847656 160.890625 190.011719 C 160.972656 190.085938 161.074219 190.117188 161.179688 190.117188 " fill-opacity="1" fill-rule="nonzero"/><path fill="rgb(29.40979%, 8.628845%, 8.239746%)" d="M 324.183594 144.8125 C 324.183594 144.8125 319.070312 128.886719 304.121094 121.023438 C 289.171875 113.15625 294.289062 94.480469 294.683594 90.546875 C 294.683594 90.546875 300.835938 107.289062 309.238281 110.996094 C 324.378906 117.679688 348.183594 134.980469 337.953125 166.828125 C 337.953125 166.828125 322.609375 157 324.183594 144.8125 " fill-opacity="1" fill-rule="nonzero"/><path fill="rgb(63.529968%, 31.369019%, 18.818665%)" d="M 282.496094 257.679688 C 286.238281 257.679688 291.851562 257.679688 291.851562 257.679688 C 302.707031 257.003906 299.265625 248.4375 301.882812 242.96875 C 305.183594 236.078125 309.636719 223.058594 310.535156 217.546875 C 311.09375 214.113281 307.011719 212.066406 307.800781 210.121094 C 321.488281 176.316406 313.167969 148.296875 290.367188 144.859375 C 279.433594 143.214844 266.300781 151.96875 264.015625 162.617188 C 261.503906 174.308594 258.796875 202.214844 282.1875 216.421875 C 298.230469 226.160156 287.589844 243.109375 287.589844 243.109375 C 277.453125 243.109375 272.316406 257.679688 282.496094 257.679688 " fill-opacity="1" fill-rule="nonzero"/><path fill="rgb(100%, 100%, 100%)" d="M 295.976562 257.65625 C 299.582031 257.65625 301.214844 255.019531 299.609375 251.796875 C 299.609375 251.796875 297.171875 242.71875 286.617188 242.71875 C 276.210938 242.71875 273.621094 251.796875 273.621094 251.796875 C 272.015625 255.019531 273.644531 257.65625 277.25 257.65625 L 295.976562 257.65625 " fill-opacity="1" fill-rule="nonzero"/><path fill="rgb(72.158813%, 63.529968%, 48.629761%)" d="M 282.992188 243.410156 C 282.574219 244.757812 282.191406 245.964844 281.90625 247.148438 C 281.621094 248.324219 281.4375 249.453125 281.421875 250.546875 C 281.402344 251.644531 281.535156 252.714844 281.84375 253.839844 C 282.144531 254.972656 282.628906 256.113281 283.144531 257.425781 C 281.996094 256.980469 280.988281 256.089844 280.242188 254.863281 C 279.496094 253.648438 279.070312 252.050781 279.109375 250.484375 C 279.144531 248.90625 279.59375 247.417969 280.28125 246.203125 C 280.96875 244.996094 281.871094 243.980469 282.992188 243.410156 " fill-opacity="1" fill-rule="nonzero"/><path fill="rgb(72.158813%, 63.529968%, 48.629761%)" d="M 290.589844 243.410156 C 291.011719 244.757812 291.390625 245.964844 291.671875 247.148438 C 291.964844 248.324219 292.140625 249.453125 292.160156 250.546875 C 292.183594 251.644531 292.046875 252.714844 291.738281 253.839844 C 291.433594 254.972656 290.949219 256.113281 290.4375 257.425781 C 291.585938 256.980469 292.59375 256.089844 293.34375 254.863281 C 294.085938 253.648438 294.511719 252.050781 294.46875 250.484375 C 294.441406 248.90625 293.988281 247.417969 293.304688 246.203125 C 292.613281 244.996094 291.710938 243.980469 290.589844 243.410156 " fill-opacity="1" fill-rule="nonzero"/><path fill="rgb(63.529968%, 31.369019%, 18.818665%)" d="M 196.042969 218.503906 C 192.859375 223.710938 190.132812 230.886719 186.746094 236.050781 C 184.675781 239.207031 179.8125 244.746094 167.710938 244.746094 C 160.785156 244.746094 159.8125 256.257812 159.527344 259.347656 C 159.527344 259.347656 181.601562 259.347656 190.4375 259.347656 C 202.527344 259.347656 209.191406 241.921875 211.824219 236.492188 C 214.652344 230.664062 223.480469 213.347656 223.480469 213.347656 C 206.957031 209.804688 200.90625 210.542969 196.042969 218.503906 " fill-opacity="1" fill-rule="nonzero"/><g clip-path="url(#clip-0)"><path fill="rgb(100%, 100%, 100%)" d="M 176.878906 261.609375 C 180.488281 261.609375 182.121094 258.96875 180.515625 255.746094 C 180.515625 255.746094 178.082031 246.667969 167.523438 246.667969 C 157.117188 246.667969 154.523438 255.746094 154.523438 255.746094 C 152.917969 258.96875 154.554688 261.609375 158.15625 261.609375 L 176.878906 261.609375 " fill-opacity="1" fill-rule="nonzero"/></g><g clip-path="url(#clip-1)"><path fill="rgb(72.158813%, 63.529968%, 48.629761%)" d="M 163.898438 247.359375 C 163.476562 248.707031 163.101562 249.917969 162.8125 251.09375 C 162.527344 252.277344 162.347656 253.402344 162.324219 254.496094 C 162.308594 255.59375 162.441406 256.667969 162.746094 257.789062 C 163.054688 258.921875 163.535156 260.066406 164.050781 261.375 C 162.902344 260.929688 161.890625 260.039062 161.148438 258.816406 C 160.398438 257.597656 159.972656 256.003906 160.015625 254.429688 C 160.046875 252.855469 160.503906 251.367188 161.179688 250.152344 C 161.875 248.945312 162.773438 247.929688 163.898438 247.359375 " fill-opacity="1" fill-rule="nonzero"/></g><g clip-path="url(#clip-2)"><path fill="rgb(72.158813%, 63.529968%, 48.629761%)" d="M 171.492188 247.359375 C 171.910156 248.707031 172.292969 249.917969 172.578125 251.09375 C 172.867188 252.277344 173.042969 253.402344 173.070312 254.496094 C 173.085938 255.59375 172.953125 256.667969 172.644531 257.789062 C 172.34375 258.921875 171.855469 260.066406 171.335938 261.375 C 172.488281 260.929688 173.5 260.039062 174.246094 258.816406 C 174.992188 257.597656 175.417969 256.003906 175.375 254.429688 C 175.34375 252.855469 174.894531 251.367188 174.207031 250.152344 C 173.515625 248.945312 172.621094 247.929688 171.492188 247.359375 " fill-opacity="1" fill-rule="nonzero"/></g><path fill="rgb(76.469421%, 38.819885%, 22.749329%)" d="M 210.789062 181.773438 C 210.789062 181.773438 244.328125 180.097656 260.359375 161.421875 C 275.351562 143.957031 288.976562 134.585938 305.796875 136.359375 C 338.96875 139.84375 344.445312 170.269531 327.039062 197.988281 C 320.121094 209.003906 291.632812 228.171875 270.683594 236.425781 C 256.640625 241.960938 225.542969 249.300781 207.644531 242.71875 L 210.789062 181.773438 " fill-opacity="1" fill-rule="nonzero"/><path fill="rgb(100%, 100%, 100%)" d="M 270.980469 236.425781 C 291.925781 228.171875 320.414062 209.003906 327.335938 197.988281 C 335.960938 184.253906 337.316406 170.519531 334.117188 159.0625 C 324.25 188.464844 292.296875 204.867188 275.113281 220.109375 C 256.816406 236.328125 196.332031 233.378906 196.332031 233.378906 C 192.085938 237.796875 206.152344 243.378906 216.214844 244.878906 C 234.234375 247.300781 258.996094 241.148438 270.980469 236.425781 " fill-opacity="1" fill-rule="nonzero"/><path fill="rgb(29.40979%, 8.628845%, 8.239746%)" d="M 305.796875 136.359375 C 288.976562 134.585938 275.351562 143.957031 260.359375 161.421875 C 246.210938 177.902344 218.453125 181.140625 212.113281 181.671875 C 213.152344 183.230469 214.308594 184.828125 215.609375 186.492188 C 215.609375 186.492188 271.472656 189.632812 289.566406 174.695312 C 305.671875 161.398438 319.898438 156.523438 336.695312 166.683594 C 338.050781 162.503906 337.589844 157.851562 336.179688 154.34375 C 332.148438 144.289062 320.996094 137.957031 305.796875 136.359375 " fill-opacity="1" fill-rule="nonzero"/><g clip-path="url(#clip-3)"><path fill="rgb(76.469421%, 38.819885%, 22.749329%)" d="M 238.234375 220.570312 C 235.046875 225.773438 232.328125 232.949219 228.9375 238.113281 C 226.867188 241.273438 222.003906 246.816406 209.90625 246.816406 C 202.980469 246.816406 202.003906 258.320312 201.71875 261.410156 C 201.71875 261.410156 223.792969 261.410156 232.625 261.410156 C 244.722656 261.410156 251.382812 243.984375 254.015625 238.554688 C 256.84375 232.726562 265.671875 215.40625 265.671875 215.40625 C 249.148438 211.871094 243.101562 212.609375 238.234375 220.570312 " fill-opacity="1" fill-rule="nonzero"/></g><g clip-path="url(#clip-4)"><path fill="rgb(100%, 100%, 100%)" d="M 219.070312 261.609375 C 222.679688 261.609375 224.3125 258.96875 222.707031 255.746094 C 222.707031 255.746094 220.269531 246.667969 209.710938 246.667969 C 199.308594 246.667969 196.714844 255.746094 196.714844 255.746094 C 195.105469 258.96875 196.742188 261.609375 200.347656 261.609375 L 219.070312 261.609375 " fill-opacity="1" fill-rule="nonzero"/></g><g clip-path="url(#clip-5)"><path fill="rgb(72.158813%, 63.529968%, 48.629761%)" d="M 206.089844 247.359375 C 205.667969 248.707031 205.289062 249.917969 205.003906 251.09375 C 204.714844 252.277344 204.539062 253.402344 204.519531 254.496094 C 204.496094 255.59375 204.632812 256.667969 204.941406 257.789062 C 205.242188 258.921875 205.726562 260.066406 206.242188 261.375 C 205.089844 260.929688 204.085938 260.039062 203.335938 258.816406 C 202.589844 257.597656 202.164062 256.003906 202.207031 254.429688 C 202.234375 252.855469 202.6875 251.367188 203.378906 250.152344 C 204.066406 248.945312 204.964844 247.929688 206.089844 247.359375 " fill-opacity="1" fill-rule="nonzero"/></g><g clip-path="url(#clip-6)"><path fill="rgb(72.158813%, 63.529968%, 48.629761%)" d="M 213.6875 247.359375 C 214.105469 248.707031 214.488281 249.917969 214.769531 251.09375 C 215.058594 252.277344 215.234375 253.402344 215.257812 254.496094 C 215.277344 255.59375 215.140625 256.667969 214.832031 257.789062 C 214.53125 258.921875 214.046875 260.066406 213.535156 261.375 C 214.683594 260.929688 215.691406 260.039062 216.4375 258.816406 C 217.179688 257.597656 217.609375 256.003906 217.566406 254.429688 C 217.539062 252.855469 217.082031 251.367188 216.398438 250.152344 C 215.707031 248.945312 214.808594 247.929688 213.6875 247.359375 " fill-opacity="1" fill-rule="nonzero"/></g><path fill="rgb(74.508667%, 31.759644%, 16.468811%)" d="M 184.425781 182.292969 C 184.425781 182.292969 178.921875 184.589844 173.457031 188.773438 C 167.285156 193.5 160.578125 199.152344 157.144531 203.789062 C 154.09375 207.894531 153.378906 210.648438 155.769531 214.566406 C 159.941406 221.402344 169.941406 238.097656 175.296875 247.050781 C 177.433594 250.617188 180.316406 251.511719 182.167969 249.113281 C 185.734375 244.492188 190.652344 236.332031 188.882812 228.140625 C 186.183594 215.695312 184.425781 182.292969 184.425781 182.292969 " fill-opacity="1" fill-rule="nonzero"/><path fill="rgb(84.309387%, 45.489502%, 27.059937%)" d="M 233.976562 202.492188 L 223.769531 179.601562 L 215.476562 174.699219 C 215.476562 174.699219 210.628906 175.132812 209.382812 175.59375 C 206.363281 176.707031 201.339844 179.195312 198.214844 179.976562 L 198.21875 180.007812 L 198.210938 179.976562 C 195.09375 180.792969 189.492188 181.039062 186.3125 181.519531 C 184.996094 181.714844 177.636719 185.46875 175.640625 191.960938 C 173.800781 197.949219 177.730469 216.9375 177.730469 216.9375 C 176.714844 221 176.847656 233.050781 184.597656 235.777344 C 197.101562 240.171875 200.875 245.015625 210.238281 242.613281 L 214.058594 241.632812 L 214.050781 241.605469 L 214.0625 241.632812 L 217.878906 240.652344 C 227.246094 238.25 228.210938 232.191406 237.046875 222.304688 C 242.527344 216.183594 236.828125 205.566406 233.976562 202.492188 " fill-opacity="1" fill-rule="nonzero"/><path fill="rgb(100%, 100%, 100%)" d="M 212.796875 212.902344 L 201.183594 178.972656 C 200.464844 179.238281 198.992188 179.703125 198.242188 179.925781 C 197.523438 180.132812 196.65625 180.386719 195.28125 180.542969 L 201.347656 216.003906 C 194.675781 219.390625 189.40625 225.367188 190.890625 231.160156 C 191.785156 234.621094 198.398438 241.066406 201.632812 242.75 C 204.210938 243.394531 206.847656 243.464844 210.199219 242.605469 L 214.015625 241.621094 L 214.011719 241.59375 L 214.019531 241.621094 L 217.832031 240.640625 C 221.1875 239.777344 223.460938 238.449219 225.410156 236.644531 C 227.429688 233.609375 229.832031 223.332031 228.941406 219.875 C 227.457031 214.101562 220.171875 212.292969 212.796875 212.902344 " fill-opacity="1" fill-rule="nonzero"/><path fill="rgb(29.40979%, 8.628845%, 8.239746%)" d="M 224.363281 201.851562 C 224.882812 203.875 224.265625 205.785156 222.976562 206.113281 C 221.691406 206.449219 220.226562 205.074219 219.703125 203.046875 C 219.1875 201.019531 219.804688 199.109375 221.089844 198.785156 C 222.378906 198.449219 223.84375 199.824219 224.363281 201.851562 " fill-opacity="1" fill-rule="nonzero"/><path fill="rgb(29.40979%, 8.628845%, 8.239746%)" d="M 190.503906 210.542969 C 191.027344 212.570312 190.40625 214.480469 189.121094 214.808594 C 187.828125 215.140625 186.367188 213.765625 185.84375 211.738281 C 185.324219 209.714844 185.949219 207.804688 187.234375 207.476562 C 188.515625 207.140625 189.984375 208.519531 190.503906 210.542969 " fill-opacity="1" fill-rule="nonzero"/><path fill="rgb(74.508667%, 31.759644%, 16.468811%)" d="M 215.191406 174.730469 C 215.191406 174.730469 215.519531 174.675781 225.511719 174.097656 C 232.03125 173.722656 239.816406 173.890625 247.738281 175.472656 C 252.535156 176.425781 253.582031 182.65625 253.472656 187.304688 C 253.265625 196.195312 253.464844 216.21875 253.574219 225.128906 C 253.605469 227.855469 250.703125 229.441406 246.976562 228.554688 C 241.3125 227.203125 233.800781 224.027344 231.894531 216.59375 C 227.183594 198.265625 225.613281 192.3125 223.042969 182.316406 C 221.945312 178.050781 215.191406 174.730469 215.191406 174.730469 " fill-opacity="1" fill-rule="nonzero"/><path fill="rgb(29.40979%, 8.628845%, 8.239746%)" d="M 196.535156 216.195312 C 196.5 213.453125 200.566406 211.753906 205.859375 210.394531 C 212.261719 208.746094 215.5 208.585938 216.691406 211.019531 C 218.089844 213.886719 213.382812 220.636719 208.414062 221.914062 C 204.367188 222.949219 196.574219 219.519531 196.535156 216.195312 " fill-opacity="1" fill-rule="nonzero"/><path fill="rgb(29.40979%, 8.628845%, 8.239746%)" d="M 231.171875 219.429688 L 231.023438 219.476562 L 231.019531 219.476562 C 229.914062 221.488281 228.632812 223.417969 227.179688 225.195312 C 226.449219 226.078125 225.675781 226.921875 224.820312 227.664062 C 223.96875 228.410156 223.035156 229.066406 222.035156 229.441406 C 221.78125 229.539062 221.527344 229.613281 221.269531 229.664062 C 221.003906 229.722656 220.738281 229.765625 220.46875 229.796875 C 219.925781 229.847656 219.386719 229.84375 218.84375 229.796875 C 217.761719 229.691406 216.695312 229.390625 215.679688 228.972656 C 214.667969 228.554688 213.695312 228.011719 212.777344 227.398438 C 212.320312 227.085938 211.871094 226.761719 211.441406 226.417969 C 211.222656 226.246094 211.015625 226.070312 210.808594 225.894531 C 210.609375 225.71875 210.394531 225.519531 210.226562 225.355469 C 210.117188 225.25 209.980469 225.164062 209.820312 225.117188 C 209.726562 225.089844 209.078125 220.890625 209.078125 220.890625 L 207.425781 221.316406 C 207.425781 221.316406 208.6875 225.515625 208.617188 225.75 L 208.609375 225.773438 C 208.539062 225.996094 208.449219 226.269531 208.351562 226.523438 C 208.257812 226.777344 208.160156 227.03125 208.050781 227.285156 C 207.839844 227.792969 207.601562 228.296875 207.347656 228.785156 C 206.84375 229.765625 206.253906 230.703125 205.566406 231.558594 C 204.878906 232.414062 204.089844 233.1875 203.191406 233.796875 C 202.742188 234.101562 202.265625 234.367188 201.769531 234.574219 C 201.519531 234.679688 201.265625 234.769531 201.007812 234.851562 L 200.910156 234.878906 L 200.8125 234.902344 L 200.625 234.949219 C 200.496094 234.980469 200.363281 235 200.234375 235.019531 C 199.175781 235.164062 198.042969 235.042969 196.949219 234.804688 C 195.84375 234.554688 194.75 234.195312 193.683594 233.773438 C 191.566406 232.914062 189.511719 231.832031 187.578125 230.609375 L 187.570312 230.605469 L 187.371094 230.640625 L 187.402344 230.84375 C 189.285156 232.199219 191.269531 233.402344 193.390625 234.40625 C 194.453125 234.902344 195.546875 235.347656 196.699219 235.671875 C 197.855469 235.992188 199.070312 236.214844 200.347656 236.113281 C 200.507812 236.097656 200.664062 236.082031 200.824219 236.054688 C 200.902344 236.046875 200.984375 236.03125 201.070312 236.011719 L 201.179688 235.988281 L 201.304688 235.964844 C 201.609375 235.886719 201.914062 235.796875 202.210938 235.691406 C 202.804688 235.480469 203.375 235.207031 203.90625 234.890625 C 204.984375 234.246094 205.921875 233.417969 206.742188 232.515625 C 207.566406 231.609375 208.273438 230.617188 208.890625 229.585938 C 209.195312 229.070312 209.488281 228.542969 209.75 228 C 209.8125 227.867188 209.875 227.726562 209.941406 227.585938 C 210.0625 227.675781 210.1875 227.769531 210.308594 227.855469 C 210.800781 228.199219 211.304688 228.523438 211.824219 228.824219 C 212.863281 229.433594 213.964844 229.960938 215.117188 230.355469 C 216.269531 230.753906 217.488281 231.019531 218.742188 231.066406 C 219.367188 231.082031 219.996094 231.046875 220.613281 230.949219 C 220.925781 230.898438 221.238281 230.828125 221.539062 230.742188 C 221.851562 230.660156 222.160156 230.546875 222.445312 230.417969 C 223.609375 229.890625 224.5625 229.113281 225.417969 228.277344 C 226.265625 227.4375 227.011719 226.523438 227.703125 225.574219 C 229.070312 223.671875 230.226562 221.660156 231.214844 219.570312 L 231.171875 219.429688 " fill-opacity="1" fill-rule="nonzero"/><g clip-path="url(#clip-7)"><path fill="rgb(76.469421%, 38.819885%, 22.749329%)" d="M 308.855469 261.609375 C 312.59375 261.609375 318.210938 261.609375 318.210938 261.609375 C 329.066406 260.9375 325.625 252.371094 328.242188 246.898438 C 331.539062 240.011719 335.992188 226.992188 336.894531 221.476562 C 337.453125 218.046875 333.371094 216 334.15625 214.050781 C 347.847656 180.246094 339.527344 152.230469 316.722656 148.792969 C 305.792969 147.144531 292.660156 155.90625 290.371094 166.546875 C 287.859375 178.238281 285.160156 206.152344 308.546875 220.351562 C 324.589844 230.09375 313.945312 247.039062 313.945312 247.039062 C 303.8125 247.039062 298.671875 261.609375 308.855469 261.609375 " fill-opacity="1" fill-rule="nonzero"/></g><path fill="rgb(94.509888%, 92.158508%, 87.449646%)" d="M 305.027344 251.890625 C 305.023438 251.886719 305.015625 251.882812 305.007812 251.875 C 306.835938 249.210938 310 247.039062 313.910156 247.039062 C 313.910156 247.039062 323.984375 230.988281 309.738281 221.144531 C 309.738281 221.140625 309.742188 221.132812 309.742188 221.125 C 324.039062 230.960938 313.945312 247.039062 313.945312 247.039062 C 310.027344 247.039062 306.855469 249.21875 305.027344 251.890625 " fill-opacity="1" fill-rule="nonzero"/><path fill="rgb(69.40918%, 38.819885%, 21.958923%)" d="M 309.738281 221.144531 C 309.34375 220.878906 308.9375 220.613281 308.511719 220.351562 C 307.230469 219.578125 306.03125 218.757812 304.90625 217.90625 C 304.914062 217.902344 304.921875 217.898438 304.925781 217.894531 C 306.058594 218.75 307.261719 219.570312 308.546875 220.351562 C 308.960938 220.605469 309.359375 220.863281 309.742188 221.125 C 309.742188 221.132812 309.738281 221.140625 309.738281 221.144531 " fill-opacity="1" fill-rule="nonzero"/><path fill="rgb(79.998779%, 45.878601%, 26.669312%)" d="M 294.136719 205.335938 C 288.738281 195.246094 288.222656 183.824219 289.03125 175.125 C 289.039062 175.113281 289.054688 175.101562 289.066406 175.097656 C 288.261719 183.792969 288.765625 195.222656 294.164062 205.3125 C 294.15625 205.320312 294.148438 205.328125 294.136719 205.335938 " fill-opacity="1" fill-rule="nonzero"/><path fill="rgb(100%, 100%, 100%)" d="M 304.90625 217.90625 C 300.074219 214.25 296.601562 209.929688 294.136719 205.335938 C 294.148438 205.328125 294.15625 205.320312 294.164062 205.3125 C 296.625 209.914062 300.097656 214.238281 304.925781 217.894531 C 304.921875 217.898438 304.914062 217.902344 304.90625 217.90625 " fill-opacity="1" fill-rule="nonzero"/><path fill="rgb(38.819885%, 13.328552%, 11.759949%)" d="M 289.03125 175.125 C 289.339844 171.789062 289.839844 168.851562 290.335938 166.546875 C 291.585938 160.714844 296.105469 155.453125 301.71875 152.15625 C 301.71875 152.160156 301.714844 152.167969 301.714844 152.175781 C 296.113281 155.476562 291.625 160.730469 290.371094 166.546875 C 289.878906 168.84375 289.378906 171.769531 289.066406 175.097656 C 289.054688 175.101562 289.039062 175.113281 289.03125 175.125 " fill-opacity="1" fill-rule="nonzero"/><path fill="rgb(79.998779%, 45.878601%, 26.669312%)" d="M 313.621094 256.425781 C 311.425781 256.425781 308.355469 254.59375 305.027344 251.890625 C 306.855469 249.21875 310.027344 247.039062 313.945312 247.039062 C 313.945312 247.039062 324.039062 230.960938 309.742188 221.125 C 309.359375 220.863281 308.960938 220.605469 308.546875 220.351562 C 307.261719 219.570312 306.058594 218.75 304.925781 217.894531 C 300.097656 214.238281 296.625 209.914062 294.164062 205.3125 C 288.765625 195.222656 288.261719 183.792969 289.066406 175.097656 C 289.378906 171.769531 289.878906 168.84375 290.371094 166.546875 C 291.625 160.730469 296.113281 155.476562 301.714844 152.175781 C 294.488281 170.976562 299.207031 201.628906 314.15625 210.273438 C 330.972656 220.007812 321.691406 248.710938 315.792969 255.496094 C 315.234375 256.136719 314.496094 256.425781 313.621094 256.425781 " fill-opacity="1" fill-rule="nonzero"/><g clip-path="url(#clip-8)"><path fill="rgb(100%, 100%, 100%)" d="M 322.335938 261.589844 C 325.9375 261.589844 327.574219 258.953125 325.96875 255.726562 C 325.96875 255.726562 323.527344 246.648438 312.972656 246.648438 C 302.570312 246.648438 299.980469 255.726562 299.980469 255.726562 C 298.371094 258.953125 300.003906 261.589844 303.605469 261.589844 L 322.335938 261.589844 " fill-opacity="1" fill-rule="nonzero"/></g><g clip-path="url(#clip-9)"><path fill="rgb(72.158813%, 63.529968%, 48.629761%)" d="M 309.347656 247.339844 C 308.933594 248.6875 308.550781 249.894531 308.265625 251.078125 C 307.976562 252.257812 307.800781 253.386719 307.78125 254.476562 C 307.757812 255.574219 307.890625 256.648438 308.203125 257.773438 C 308.503906 258.90625 308.988281 260.046875 309.503906 261.359375 C 308.355469 260.910156 307.34375 260.019531 306.597656 258.796875 C 305.851562 257.578125 305.425781 255.984375 305.464844 254.414062 C 305.5 252.839844 305.953125 251.34375 306.636719 250.132812 C 307.328125 248.925781 308.222656 247.914062 309.347656 247.339844 " fill-opacity="1" fill-rule="nonzero"/></g><g clip-path="url(#clip-10)"><path fill="rgb(72.158813%, 63.529968%, 48.629761%)" d="M 316.949219 247.339844 C 317.367188 248.6875 317.742188 249.894531 318.03125 251.078125 C 318.320312 252.257812 318.496094 253.386719 318.515625 254.476562 C 318.535156 255.574219 318.40625 256.648438 318.09375 257.773438 C 317.792969 258.90625 317.304688 260.046875 316.789062 261.359375 C 317.945312 260.910156 318.949219 260.019531 319.699219 258.796875 C 320.445312 257.578125 320.871094 255.984375 320.828125 254.414062 C 320.796875 252.839844 320.34375 251.34375 319.664062 250.132812 C 318.972656 248.925781 318.066406 247.914062 316.949219 247.339844 " fill-opacity="1" fill-rule="nonzero"/></g><g clip-path="url(#clip-11)"><path fill="rgb(89.408875%, 84.709167%, 76.078796%)" d="M 304.121094 121.023438 C 304.25 121.078125 307.566406 118.664062 308.378906 117.117188 C 310.289062 113.460938 309.878906 111.382812 309.238281 110.996094 C 300.558594 105.761719 294.289062 88.875 294.289062 88.875 C 293.894531 92.808594 285.4375 112.984375 304.121094 121.023438 " fill-opacity="1" fill-rule="nonzero"/></g></svg>