<?xml version="1.0" encoding="utf-8"?>
<!-- Generator: Adobe Illustrator 25.4.1, SVG Export Plug-In . SVG Version: 6.00 Build 0)  -->
<svg version="1.1" id="Layer_1" xmlns="http://www.w3.org/2000/svg" xmlns:xlink="http://www.w3.org/1999/xlink" x="0px" y="0px"
	 viewBox="0 0 2501 2501" style="enable-background:new 0 0 2501 2501;" xml:space="preserve">
<style type="text/css">
	.st0{fill:#FFFFFF;}
	.st1{fill:#FFEDE8;}
	.st2{fill:#8A3716;}
	.st3{fill:#F23C24;}
	.st4{fill:#C4240C;}
	.st5{fill:#611C00;}
	.st6{fill:#E6E6E6;}
	.st7{fill:#CCCCCC;}
	.st8{fill:#DAE7ED;}
	.st9{fill:#74C6DD;}
	.st10{fill:#75B3C9;}
	.st11{fill:#B5E6F2;}
	.st12{fill:#1C6C80;}
	.st13{fill:#A8D2E3;}
	.st14{fill:#BDE2F2;}
	.st15{opacity:0.71;fill:#FFFFFF;}
	.st16{fill:#F4901F;}
	.st17{fill:#B53926;}
	.st18{fill:#CF5124;}
	.st19{fill:#B23926;}
	.st20{fill:#FBCB9A;}
</style>
<rect x="0.5" y="0.5" class="st0" width="2500" height="2500"/>
<g>
	<g>
		<g>
			<path class="st1" d="M1217.97,1099.66c394.52-143.81,908.15-61.64,1029.78,255.25s-65,476.75-325.47,467.62
				c-260.47-9.14-292.5-29.81-460.03,31.26C1294.71,1914.86,1217.97,1099.66,1217.97,1099.66z"/>
			<path class="st1" d="M1249.97,1088C855.45,1231.8,515.18,1625.22,626,1946.05c110.82,320.83,356.55,323.1,550.04,148.48
				s204.71-211.04,372.24-272.11S1249.97,1088,1249.97,1088z"/>
		</g>
		<g>
			<g>
				
					<ellipse transform="matrix(0.8437 -0.5368 0.5368 0.8437 -331.7014 529.9081)" class="st1" cx="744.19" cy="834.6" rx="178.96" ry="291.25"/>
				
					<ellipse transform="matrix(0.9912 -0.1321 0.1321 0.9912 -63.9978 195.5293)" class="st1" cx="1442.04" cy="580.23" rx="178.96" ry="291.25"/>
			</g>
			<g>
				
					<ellipse transform="matrix(0.3896 -0.921 0.921 0.3896 -1112.67 1115.0356)" class="st1" cx="284.86" cy="1396.93" rx="137.94" ry="224.5"/>
				
					<ellipse transform="matrix(0.4542 -0.8909 0.8909 0.4542 539.3522 2310.5486)" class="st1" cx="2155.5" cy="715.07" rx="224.5" ry="137.94"/>
			</g>
		</g>
	</g>
	<g>
		<path class="st2" d="M658.02,1667.71c-44.26-44.26,6.44-78.05,27.36-74.03c20.92,4.02,42.65,20.12,42.65,20.12
			s-64.37-87.71,12.87-116.67c77.25-28.97,74.83,71.61,74.83,71.61s9.66-25.75,35.4-28.97c25.75-3.22,32.19,28.97,32.19,28.97
			s9.66-106.21,77.25-86.9c67.59,19.31,34.6,81.27,34.6,81.27s23.34-35.4,43.45-27.36c20.12,8.05,8.85,30.58,8.85,30.58
			s28.97-25.75,53.91-16.9c24.94,8.85,7.24,38.62,7.24,38.62s53.91-24.94,68.4,18.51c14.48,43.45-39.43,70.81-39.43,70.81
			L658.02,1667.71z"/>
		<g>
			<path class="st3" d="M1308.05,1915.99v0.39H883.2v-256.85h265.34c23.95,0,45.58,13.91,55.62,35.15l4.63,9.66l5.41,11.59
				l29.74,63.73l50.21,107.37L1308.05,1915.99z"/>
			<path class="st3" d="M915.25,1659.53v256.85H490.4l34.76-74.16l69.14-147.54c10.04-21.24,31.67-35.15,55.62-35.15H915.25z"/>
		</g>
		<path class="st4" d="M1313.46,1904.02c0,4.63-1.93,9.27-5.41,11.97c0,0.39-0.39,0.39-0.77,0.39c-2.7,2.7-6.57,4.25-10.81,4.25
			H501.99c-4.25,0-8.11-1.54-10.82-4.25c-0.39,0-0.77,0-0.77-0.39c-3.47-2.7-5.41-7.34-5.41-11.97c0-9.66,7.72-16.99,16.99-16.99
			h794.48C1305.74,1887.02,1313.46,1894.36,1313.46,1904.02z"/>
		<g>
			<g>
				<path class="st4" d="M897.67,1756.68c39.98,0,83.24,24.09,83.78,56.4c0.55,32.31-21.36,40.52-44.36,31.21
					c-23-9.31-25.19-12.2-42.17-12.2C877.96,1832.09,897.67,1756.68,897.67,1756.68z"/>
				<path class="st4" d="M900.91,1756.68c-39.98,0-83.24,24.09-83.78,56.4c-0.55,32.31,21.36,40.52,44.36,31.21
					c23-9.31,25.19-12.2,42.17-12.2C920.63,1832.09,900.91,1756.68,900.91,1756.68z"/>
			</g>
			<g>
				<g>
					<path class="st4" d="M880.57,1713.85c3.3,14.95-1.48,28.72-10.66,30.74c-9.19,2.03-19.31-8.45-22.61-23.41
						c-3.3-14.95,1.48-28.72,10.66-30.74C867.15,1688.42,877.27,1698.9,880.57,1713.85z"/>
					
						<ellipse transform="matrix(0.2154 -0.9765 0.9765 0.2154 -943.871 2260.3079)" class="st4" cx="934.65" cy="1717.52" rx="27.73" ry="17.04"/>
				</g>
				<g>
					
						<ellipse transform="matrix(0.6814 -0.7319 0.7319 0.6814 -1026.5638 1147.1677)" class="st4" cx="804.52" cy="1752.84" rx="13.13" ry="21.37"/>
					
						<ellipse transform="matrix(0.7319 -0.6814 0.6814 0.7319 -927.9291 1147.397)" class="st4" cx="994.06" cy="1752.84" rx="21.37" ry="13.13"/>
				</g>
			</g>
		</g>
		<g>
			<g>
				<path class="st5" d="M774.5,1639.05c-0.62,0-1.24-0.3-1.62-0.87c-7.83-11.94-9.67-26.36-4.68-36.74
					c3.39-7.07,9.66-11.37,17.6-12.11c7.11-0.72,13.3,1.15,17.77,5.47c9.34,8.98,8.51,25.44,8.47,26.14
					c-0.06,1.02-0.91,1.81-1.92,1.81c-0.04,0-0.08,0-0.11,0c-1.06-0.06-1.87-0.96-1.81-2.04c0-0.15,0.74-15.41-7.3-23.14
					c-3.62-3.49-8.58-4.98-14.75-4.39c-8.37,0.77-12.48,5.83-14.46,9.94c-4.41,9.18-2.68,22.1,4.45,32.95
					c0.58,0.89,0.32,2.09-0.57,2.68C775.23,1638.96,774.85,1639.05,774.5,1639.05z"/>
			</g>
			<g>
				<path class="st5" d="M866.83,1643.28c-0.77,0-1.51-0.47-1.81-1.23c-3.89-10.22-2.28-20.1,4.56-27.8
					c7.47-8.45,20.01-12.56,30.46-9.92c8.68,2.17,14.69,8.51,16.95,17.86c0.25,1.04-0.4,2.07-1.43,2.34
					c-1.13,0.06-2.09-0.4-2.34-1.43c-2.41-10.09-9.01-13.73-14.13-15.01c-9.18-2.32-20.08,1.32-26.63,8.71
					c-5.83,6.58-7.2,15.07-3.83,23.86c0.38,1-0.13,2.11-1.11,2.51C867.3,1643.24,867.06,1643.28,866.83,1643.28z"/>
			</g>
			<g>
				<path class="st5" d="M1070.21,1654.14c-0.79,0-1.53-0.47-1.81-1.26c-0.38-1,0.15-2.11,1.15-2.47c0.08-0.04,8.62-3.24,10.33-8.75
					c0.7-2.21,0.17-4.51-1.6-7.03c-7.49-10.73-21.73-5.43-21.86-5.34l-3.22,1.23l0.62-3.39c0.04-0.17,3.09-17.39-4.58-28.1
					c-3.26-4.56-8.07-7.34-14.31-8.26c-25.2-3.7-31.95,26.2-32.23,27.46l-1.49,7.02l-2.23-6.81c-0.06-0.15-4.77-14.28-14.46-17.48
					c-11.96-3.94-21.78,3.11-26.2,7.15c-1.45,1.53-2.43,2.47-2.66,2.68l-2.81-2.62c0.15-0.17,1.08-1.28,2.7-2.79
					c7.47-8.07,28.1-33.25,14.69-52.13c-7.05-9.98-17.18-13.16-28.46-8.86c-16.54,6.26-32.78,28.19-30.17,52.73
					c0.11,1.06-0.66,2.02-1.72,2.13c-0.08,0-0.15,0-0.21,0c-0.98,0-1.81-0.74-1.92-1.72c-2.79-26.38,14.77-50,32.64-56.77
					c12.9-4.87,24.91-1.13,32.98,10.26c11.33,15.95,2,34.93-6.86,47.15c5.32-2.24,11.92-3.32,19.2-0.87
					c7.49,2.47,12.3,9.84,14.8,14.9c3.45-9.56,13.09-28.42,34.96-25.23c7.32,1.07,13.01,4.38,16.9,9.83
					c6.66,9.3,6.24,22.25,5.64,28.04c5.37-1.17,16.54-2.23,23.42,7.58c2.47,3.55,3.19,7.05,2.11,10.43
					c-2.28,7.32-12.26,11.05-12.69,11.2C1070.66,1654.1,1070.43,1654.14,1070.21,1654.14z"/>
			</g>
		</g>
		<path class="st6" d="M1313.46,1904.02c0,4.63-1.93,9.27-5.41,11.97v0.39h-0.77c-2.7,2.7-6.57,4.25-10.81,4.25H862.73
			c0-1.54,0.77-2.7,1.55-4.25c3.09-7.34,9.27-13.52,18.93-18.15c8.11-4.25,18.54-7.73,32.06-9.66c3.09-0.77,6.57-1.16,10.04-1.55
			c8.89-1.16,19.31-1.93,30.9-2.32c59.09-1.93,241.78-49.82,287.74-105.05l50.21,107.37h2.32
			C1305.74,1887.02,1313.46,1894.36,1313.46,1904.02z"/>
		<path class="st7" d="M1208.79,1704.33c-107.81-34.62-246.13-27.08-342.69-4.3c-4.64,1.16-9.66,2.32-14.29,3.86
			c-10.81,2.7-21.24,5.79-32.06,9.27c-123.6,40.94-208.81,137.6-294.6,129.05l69.14-147.54c10.04-21.24,31.67-35.15,55.62-35.15
			h498.63c23.95,0,45.58,13.91,55.62,35.15L1208.79,1704.33z"/>
	</g>
	<g>
		<g>
			<path class="st2" d="M703.43,1350.55c0.22,0.84,0.43,1.68,0.44,2.57c0.44,2.57,0.36,5.73-0.5,9.31
				c-3.24,15.17-17.48,37.22-40.99,49.35c-5.92,3.1-12,5.57-17.82,7.3c-25.65,8.2-49.14,4.87-56.46-9.59
				c-9.29-17.76,8.78-45.73,40.58-62.24c23.67-12.39,49.77-11.97,64.18-5.62c3.48,1.34,6.18,3.1,7.83,5.14
				c1.11,0.83,1.8,1.77,2.28,2.77C703.22,1349.71,703.32,1350.13,703.43,1350.55z"/>
			<g>
				<path class="st2" d="M690.31,1347.61c9.88-27.31,28.02-56.23,33.95-54.45c5.93,1.78,1.32,29.59,6.36,41.02
					c5.04,11.43-37.89,22.44-37.89,22.44L690.31,1347.61z"/>
				<path class="st2" d="M761.51,1364.64c-0.47,0.79-1.41,1.48-3.09,1.92c-8.39,3.07-32.81,1.32-55.05-4.13
					c-2.11-0.35-4-0.76-5.95-1.37l-4.09-4.54l-1.01-1.31l-0.05-0.21l-0.9-0.89c0,0,0.21-0.05,0.58-0.37
					c0.16-0.26,0.73-0.64,1.25-1.22l0.21-0.05c1.1-0.96,2.4-1.97,3.92-3.03c0.89-0.9,2.04-1.65,3.34-2.66
					c9.99-7.29,25.37-17.09,30.15-11.61c0.26,0.16,0.58,0.52,0.64,0.73C738.01,1346.53,763.36,1358.79,761.51,1364.64z"/>
			</g>
		</g>
		<path class="st5" d="M758.42,1366.56c-8.39,3.07-32.81,1.32-55.05-4.13c-3.24,15.17-17.48,37.22-40.99,49.35
			c-5.92,3.1-12,5.57-17.82,7.3c30.14-19.44,44.19-51.59,47.71-64.08c0.41-1,0.88-1.8,0.93-2.48l0.21-0.05
			c0.72-1.53,1.35-2.59,1.92-2.96c0.36-0.32,1.05-0.27,2-0.07c1.31-0.12,3.48,0.44,6.11,1.11c1.21,0.36,2.69,0.87,4.38,1.33
			C721.52,1356.4,743.74,1365.21,758.42,1366.56z"/>
	</g>
	<g>
		<path class="st2" d="M1287.84,1510.35c0.03-0.47,0.03-0.47-0.2-0.72c-16.65-19.65-26.93-47.24-26.93-47.24
			s-86.94,21.13-90.77-40.91c-0.17-1.19-0.31-2.86-0.23-4.28c0.11-64.66,85.37-26.9,85.37-26.9c9.52-55.12,67.8-76.22,95.03-30.15
			c27.01,45.82-45.06,72.06-45.06,72.06s83.69,27.95,45.35,77.42C1326.41,1540.48,1304.27,1529.75,1287.84,1510.35z"/>
		<path class="st5" d="M1287.65,1509.62c-16.65-19.65-26.93-47.24-26.93-47.24s-86.94,21.13-90.77-40.91
			c37.29,48.3,92.14,20.86,97.85,24.73C1271.91,1448.81,1274.61,1480.46,1287.65,1509.62z"/>
	</g>
	<g>
		<path class="st2" d="M1351.73,1699.83c0,22.67-18.14,40.81-40.59,40.81c-9.07,0-17.69-2.95-24.26-8.16
			c-10.2-7.26-16.55-19.05-16.55-32.65c0-22.45,18.14-40.59,40.81-40.59c17.23,0,31.74,10.66,37.64,25.62
			C1350.82,1689.39,1351.73,1694.61,1351.73,1699.83z"/>
		<path class="st5" d="M1351.73,1699.83c0,22.67-18.14,40.81-40.59,40.81c-9.07,0-17.69-2.95-24.26-8.16
			c17.23-9.3,29.7-47.39,61.9-47.62C1350.82,1689.39,1351.73,1694.61,1351.73,1699.83z"/>
	</g>
	<g>
		<path class="st2" d="M903.15,1396.92c-5.18,22.38-17.67,44.53-19.79,45.71c-3.3,1.65-63.15,16.73-82.7-6.13
			c-3.3-3.77-5.42-8.25-6.13-14.14c-4.24-36.76,48.77-29.22,48.77-29.22c1.89-35.34,27.8-54.66,52.54-37.46
			C906.92,1363.46,906.92,1380.19,903.15,1396.92z"/>
		<path class="st5" d="M903.15,1396.92c-5.18,22.38-17.67,44.53-19.79,45.71c-3.3,1.65-63.15,16.73-82.7-6.13
			C838.83,1444.75,888.78,1424.49,903.15,1396.92z"/>
	</g>
	<g>
		<path class="st2" d="M1485.74,879.15c-5.8,19.87-15.03,38.8-23.9,40.95c-17.18,4.45-89.44-18.29-96.12-38.55
			c-0.59-2.31-0.94-5.48-0.36-8.69c2.11-24.27,31.11-68.1,39.72-68.18c22.59,0.42,79.8,16.54,86.45,29.12
			C1494.67,840.2,1491.66,859.92,1485.74,879.15z"/>
		<path class="st5" d="M1485.74,879.15c-5.8,19.87-15.03,38.8-23.9,40.95c-17.18,4.45-89.44-18.29-96.12-38.55
			c-0.59-2.31-0.94-5.48-0.36-8.69C1394.09,897.68,1461.5,910.19,1485.74,879.15z"/>
	</g>
	<g>
		<path class="st8" d="M1375.66,1197.51c0,62.4-152.07,100-299.17,100c-15.7,0-31.41-0.41-46.69-1.24
			c-20.25-1.24-40.49-2.89-59.92-5.37c-106.2-13.22-192.98-46.28-192.98-93.39c0-6.2,1.65-11.98,4.13-17.77
			c11.98-23.55,47.52-42.97,95.04-56.61c18.6-5.79,39.26-10.33,61.16-13.64c9.09-1.65,18.6-3.3,28.1-4.13
			c35.54-4.96,73.55-7.44,111.16-7.44c37.6,0,75.62,2.48,111.16,7.44c9.51,0.83,19.01,2.48,28.1,4.13
			c42.15,7.03,79.34,17.36,107.44,30.58c23.97,11.57,41.32,24.79,48.76,40.5C1374.42,1185.94,1375.66,1191.72,1375.66,1197.51z"/>
		<path class="st9" d="M1371.94,1022.72v171.49c0,30.58-47.94,58.27-121.49,75.21c-12.81,2.89-26.45,5.37-40.49,7.44
			c-40.08,6.61-85.54,10.33-133.89,10.33h-3.3c-32.65,0-64.05-2.07-93.39-5.37c-13.22-1.24-26.03-2.89-38.43-4.96
			c-13.64-2.07-26.45-4.54-38.84-7.44c-73.55-16.94-121.07-44.63-121.07-75.21v-171.49c0-38.43,75.21-71.9,181.82-85.54
			c35.13-4.96,73.55-7.44,113.64-7.44c50.41,0,97.52,4.13,138.84,11.16C1308.72,956.6,1371.94,987.18,1371.94,1022.72z"/>
		<path class="st8" d="M1076.34,1120.82c-147.09,0-299.24-37.33-299.24-99.75c0-62.45,152.15-99.77,299.24-99.77
			c147.11,0,299.26,37.33,299.26,99.77C1375.61,1083.5,1223.45,1120.82,1076.34,1120.82z"/>
		<ellipse class="st10" cx="1076.35" cy="1021.06" rx="290.98" ry="91.49"/>
		<path class="st11" d="M1249.7,1253.53c0,5.37-0.41,10.33-1.24,15.7c-48.35,11.16-107.85,17.77-172.31,17.77
			s-123.55-6.61-171.9-17.77c-0.83-5.37-1.24-10.33-1.24-15.7c0-70.25,77.69-127.27,173.55-127.27
			C1172.01,1126.26,1249.7,1183.29,1249.7,1253.53z"/>
		<g>
			<ellipse class="st12" cx="1062.2" cy="1206.63" rx="72.85" ry="34.41"/>
			<g>
				<path class="st12" d="M1132.14,1201.47c17.18-13.29,40.84-24.96,44.4-22.04c3.57,2.92-10.05,18.15-10.7,26.58
					c-0.65,8.43-35.33,1.62-35.33,1.62L1132.14,1201.47z"/>
				<path class="st12" d="M1132.14,1211.8c17.18,13.29,40.84,24.96,44.4,22.04s-10.05-18.15-10.7-26.58
					c-0.65-8.43-35.33-1.62-35.33-1.62L1132.14,1211.8z"/>
			</g>
		</g>
		<ellipse class="st13" cx="986.61" cy="1021.06" rx="176.91" ry="61.98"/>
		<path class="st12" d="M1244.26,974.78c-41.74,0-77.69,10.33-91.73,24.79c-4.13,4.54-6.61,9.09-6.61,14.05
			c0,7.44,4.96,14.05,14.05,19.84c16.94,11.57,48.35,19.01,84.3,19.01c54.55,0,98.76-17.35,98.76-38.84
			C1343.02,992.14,1298.8,974.78,1244.26,974.78z M1196.74,1026.43c-15.29,0-27.27-7.02-27.27-15.7c0-8.68,11.99-16.12,27.27-16.12
			c14.88,0,27.27,7.44,27.27,16.12C1224.01,1019.41,1211.61,1026.43,1196.74,1026.43z M1295.09,1030.15
			c-19.84,0-35.95-8.68-35.95-19.42c0-10.74,16.11-19.42,35.95-19.42c20.25,0,36.36,8.68,36.36,19.42
			C1331.45,1021.47,1315.33,1030.15,1295.09,1030.15z"/>
		<ellipse class="st14" cx="949.03" cy="1018.05" rx="129" ry="45.2"/>
		<path class="st6" d="M1375.66,1197.51c0,62.4-152.07,100-299.17,100c-15.7,0-31.41-0.41-46.69-1.24
			c14.46-2.48,28.93-5.37,42.98-9.09c65.7-16.53,122.31-42.97,167.77-74.38c33.47-22.73,61.16-47.93,82.64-72.73
			c23.55-27.69,40.08-55.37,48.76-80.17v120.66C1374.42,1185.94,1375.66,1191.72,1375.66,1197.51z"/>
		<path class="st7" d="M979.38,1281.81c-2.48,3.3-5.79,6.2-9.5,9.09c-106.2-13.22-192.98-46.28-192.98-93.39
			c0-6.2,1.65-11.98,4.13-17.77v-104.96c24.38,9.92,59.92,26.86,95.04,48.35C951.28,1168.58,1024.84,1232.63,979.38,1281.81z"/>
		<path class="st15" d="M1177.32,1033.92c-2.13,3.2-9.77,1.86-17.06-2.99c-7.29-4.85-11.48-11.38-9.35-14.58
			c2.13-3.2,9.77-1.86,17.06,2.99C1175.27,1024.2,1179.45,1030.72,1177.32,1033.92z"/>
	</g>
	<g>
		<path class="st16" d="M2314.25,1007.03c0,0-125.01,980.11-163.35,1024.56c-18.89,21.67-152.8,0-286.7-30.56h-0.56
			c-135.02-31.11-270.03-70.56-292.26-83.34c-44.45-25-116.13-133.9-136.68-284.48c-8.33-57.78-6.11-110.01,3.33-158.91
			c1.11-5.55,2.22-10.56,3.33-15.56c15.56-72.79,45.56-136.13,78.9-193.91c0.55-1.11,1.11-2.22,1.67-2.78
			c11.11-20,19.45-35.56,25-48.34c20-46.67,6.11-57.23-6.11-103.9c-0.56-2.78-1.67-6.11-2.22-9.44c-6.11-26.12-5-64.45,1.11-103.34
			c7.22-55.01,23.89-111.12,40.56-132.24c2.22-3.33,4.45-5.56,7.22-7.22c16.12-10,173.91-7.78,343.93,18.89
			C2077,899.24,2230.91,940.36,2314.25,1007.03z"/>
		<g>
			
				<ellipse transform="matrix(0.1057 -0.9944 0.9944 0.1057 559.8437 2791.2583)" class="st17" cx="1831.79" cy="1084.37" rx="65.17" ry="116.04"/>
			<g>
				<path class="st17" d="M1930.31,1081.09c41.78-30.95,97.47-56.11,104.55-47.59s-27.34,45.44-31.14,67.48s-78.72-4.05-78.72-4.05
					L1930.31,1081.09z"/>
				<path class="st17" d="M1927.42,1108.29c34.34,39.05,83.49,75.35,92.21,68.51c8.72-6.84-17.18-50.17-16.25-72.52
					c0.92-22.35-77.82-12.59-77.82-12.59L1927.42,1108.29z"/>
			</g>
		</g>
		<path class="st18" d="M2289.8,1937.7c0,0-65.01,42.23-106.68,71.12c-15.56,10.56-27.78,18.89-32.23,22.78
			c-17.22,13.33-138.91-191.13-79.45-413.38c58.9-222.25,152.24-240.03,156.13-319.48c1.67-41.67,6.67-116.68,20.56-180.02
			c13.33-57.79,33.89-106.13,66.12-111.68C2343.7,1001.48,2422.04,1610.99,2289.8,1937.7z"/>
		<path class="st19" d="M2429.82,864.8c0,18.33-88.9,75.01-115.57,142.24c-6.67,16.11-146.68-89.46-390.6-127.24
			c-12.78-2.78-26.11-4.44-40-6.11c-261.7-31.67-272.81-5.55-303.37-8.89c-0.55,0.56-1.67,0-2.22,0c-32.23-5-4.45-90.57,4.45-92.79
			c9.44-2.22,287.25,11.67,500.06,11.67c28.34,0,55.01,1.11,80.01,3.33C2328.7,799.23,2429.82,848.12,2429.82,864.8z"/>
		<path class="st20" d="M1564.16,1480.33c160.58,64.23,349.58,87.97,363.47,99.55c13.89,11.58-13.89,60.19,6.95,162.06
			c20.84,101.86,60.19,118.07,55.56,129.64c-4.63,11.58-231.51,20.84-361.15-71.77C1501.87,1709.01,1552.59,1475.7,1564.16,1480.33z
			"/>
		<path class="st6" d="M1966.99,1258.08c0,0-279.48-4.35-420.05-44.36c20-46.67,6.11-57.23-6.11-103.9
			C1658.06,1192.61,1966.99,1258.08,1966.99,1258.08z"/>
		<path class="st6" d="M1863.64,2001.04c-135.02-31.11-270.03-70.56-292.26-83.34c-44.45-25-116.13-133.9-136.68-284.48
			c-8.33-57.78-6.11-110.01,3.33-158.91C1463.46,1747.72,1607.57,1935.82,1863.64,2001.04z"/>
		<path class="st7" d="M2162.57,787.01c-65.56,17.78-146.13,52.78-231.14,89.45c-2.78,1.11-5.55,2.22-7.78,3.33
			c-130.57,55.56-271.14,113.35-383.93,117.24c7.22-55.01,23.89-111.12,40.56-132.24c-0.55,0.56-1.67,0-2.22,0
			c-32.23-5-4.45-90.57,4.45-92.79c9.44-2.22,287.25,11.67,500.06,11.67C2110.89,783.67,2137.56,784.79,2162.57,787.01z"/>
		<path class="st7" d="M1970.46,1512.16c-20,150.02-381.85,161.06-529.09-53.41c15.56-72.79,45.56-136.13,78.9-193.91
			c0.55-1.11,1.11-2.22,1.67-2.78C1709.73,1264.84,1992.13,1355.48,1970.46,1512.16z"/>
		<path class="st17" d="M2237.85,1399.3c-106.49,268.55-120.85,501.72-54.73,609.51c-15.56,10.56-27.78,18.89-32.23,22.78
			c-17.22,13.33-138.91-191.13-79.45-413.38c58.9-222.25,152.24-240.03,156.13-319.48c1.67-41.67,6.67-116.68,20.56-180.02
			C2254.24,1184.28,2278.78,1296.08,2237.85,1399.3z"/>
	</g>
</g>
</svg>
