<?xml version="1.0" encoding="utf-8"?>
<!-- Generator: Adobe Illustrator 25.4.1, SVG Export Plug-In . SVG Version: 6.00 Build 0)  -->
<svg version="1.1" id="Layer_1" xmlns="http://www.w3.org/2000/svg" xmlns:xlink="http://www.w3.org/1999/xlink" x="0px" y="0px"
	 viewBox="0 0 2000 2000" style="enable-background:new 0 0 2000 2000;" xml:space="preserve">
<style type="text/css">
	.st0{opacity:0.2;fill:#2F3D5B;}
	.st1{fill:#EDD600;}
	.st2{fill:#151C28;}
	.st3{fill:#E2857E;}
	.st4{fill:#2F3D5B;}
	.st5{fill:#FFFFFF;}
	.st6{fill:#6E7DE5;}
	.st7{fill:#7F1634;}
	.st8{fill:#231F20;}
	.st9{fill:#263149;}
	.st10{fill:#2A3756;}
	.st11{fill:#06090C;}
	.st12{fill:#D6BC03;}
	.st13{fill:#3D66F9;}
</style>
<path class="st0" d="M1750.77,1616.1c0,21.65-336.13,39.2-750.77,39.2c-414.64,0-750.77-17.55-750.77-39.2
	c0-21.65,336.13-39.21,750.77-39.21C1414.64,1576.89,1750.77,1594.44,1750.77,1616.1z"/>
<g>
	<g>
		<path class="st1" d="M1080.35,622.17c-39.13,0-74.49,40.33-74.49,79.46v832.39c0,39.13,38.26,78.49,77.4,78.49h352.72
			c39.14,0,78.37-38.38,78.37-77.52V700.67c0-39.14-35.36-78.49-74.49-78.49H1080.35z"/>
		<rect x="984.91" y="814.04" class="st2" width="20.96" height="42.64"/>
		<rect x="1514.35" y="907.07" class="st2" width="20.95" height="87.21"/>
		<g>
			<rect x="984.91" y="878" class="st2" width="20.96" height="62.02"/>
			<rect x="984.91" y="961.33" class="st2" width="20.96" height="62.02"/>
		</g>
	</g>
</g>
<g>
	<g id="_x30_4_3_x2F_4_3_">
		<path id="head_10_" class="st3" d="M1251.76,767.37c-35.15-8.88-83.71-1.79-93.73,57.13c-7.02,41.29-15.43,112.91,10.62,122.04
			c11.54,4.05,55.71,0,55.71,0l-12.52,66.36l84.16-17.28l-13.27-70.31C1282.72,925.32,1367.62,796.64,1251.76,767.37z"/>
		<path id="hair_4_" class="st4" d="M1320.04,764.2L1320.04,764.2c117.8,87.84,45.93,470.03,142.24,529.23
			c-65.92-127.99-131.24-230.73-167.48-306.93c-22.89-48.12-30.73-97.95-30.73-97.95c-1.96-5.92,13.18-16.48,3.97-34.04
			c-7.48-14.28-21.73-18.93-31.14-1.28c0,0-24.58-72.75-53.16-78.1C1202.95,738.55,1289.26,735.42,1320.04,764.2z"/>
		<g>
			<path class="st5" d="M1514.35,1239.29c-47.9-192.38-131.55-225.08-131.55-225.08s0.03-0.34,0,0c-28.17-19.06-71.8-23.62-88-27.71
				c-29.99,16-61.63,12.67-78.95,4.09c-27.39,1.7-59.05,13.91-83.93,34.64c-0.13-0.68,0,0,0,0s-85.65,56.71-126.06,323.17
				c-3.54,23.33-0.24,212.45-0.24,212.45l47.35,51.67l64.47-1.97c0,0,0.25-1.51,0.7-4.3l301.51,3.89c0.75,4.31,1.17,6.65,1.17,6.65
				l45.51-4.27c0,0,39.58-1.5,48.04-51.67C1531.22,1460.85,1522.26,1271.05,1514.35,1239.29z"/>
			<path class="st6" d="M1215.85,990.59c-63.36,194.2-47.52,437.38-47.52,437.38l126.47-441.47
				C1294.81,986.5,1243,1000.56,1215.85,990.59z"/>
			<g>
				<path class="st2" d="M1327.98,1125.45l-8.15-1.69c10.46-50.54,14.47-113.87-25.53-137.12l-4.25-10.65
					C1330.27,994.09,1344.43,1045.94,1327.98,1125.45z"/>
				<path class="st2" d="M1149.89,1141.33l-8.3-0.66c0.1-1.3,2.66-32.19,13.4-67.72c14.25-47.15,35.73-78.55,63.13-93.36l-2.27,11
					C1159.7,1028.06,1149.99,1140.15,1149.89,1141.33z"/>
				<path class="st2" d="M1326.22,1309.44l-5.98-5.8c6.17-6.37,10.38-14.35,12.17-23.08l19.4-95.03c2.6-12.73,1.01-25.26-4.46-35.3
					c-5.69-10.43-14.98-17.23-26.86-19.65c-24.05-4.91-44.59,10.03-49.96,36.32l-19.4,95.03c-1.99,9.76-0.86,19.69,3.29,28.71
					l-7.57,3.47c-4.88-10.64-6.22-22.34-3.88-33.85l19.4-95.03c6.35-31.09,30.93-48.7,59.78-42.81
					c14.16,2.89,25.7,11.35,32.51,23.82c6.42,11.76,8.3,26.3,5.31,40.95l-19.4,95.03
					C1338.46,1292.52,1333.5,1301.93,1326.22,1309.44z"/>
				<g>
					<path class="st2" d="M1162.63,1158.11c1.23,12.3-3.76,23.05-11.16,24.03c-7.39,0.97-14.39-8.21-15.62-20.5
						c-1.23-12.3,3.76-23.06,11.16-24.03C1154.41,1136.63,1161.4,1145.81,1162.63,1158.11z"/>
					<path class="st2" d="M1261.1,1296.76c0,6.04-4.89,10.93-10.93,10.93c-6.04,0-10.93-4.89-10.93-10.93s4.89-10.93,10.93-10.93
						C1256.21,1285.83,1261.1,1290.73,1261.1,1296.76z"/>
					<path class="st2" d="M1329.88,1311.42c0,6.01-4.87,10.88-10.87,10.88c-6.01,0-10.88-4.87-10.88-10.88s4.87-10.88,10.88-10.88
						C1325.01,1300.55,1329.88,1305.42,1329.88,1311.42z"/>
				</g>
			</g>
		</g>
	</g>
	<g id="_x30_3_Standing_3_">
		<g>
			<g>
				<g id="hand_6_">
					<polygon class="st3" points="738.05,1102.34 759.22,1115.72 752.18,1130.73 730.49,1124.46 					"/>
					<path class="st3" d="M777.43,1119.03c-13.46-9.92-29.37-11.19-35.54-2.83c-1.79,2.43-2.56,5.42-2.42,8.67
						c0.15,3.25,11.74,9.98,16.96,12.46c2.71,1.28,5.63,2.84,8.12,5.18c1.68,1.58-2.3,9.64-2.3,9.64
						c6.45,0.52,17.47-1.85,20.56-6.04C788.99,1137.75,790.89,1128.95,777.43,1119.03z"/>
					<path class="st7" d="M622.88,1026.24l119.58,70.71l-14.66,35.22c0,0-83.71-33.55-126.11-54.43
						C559.29,1056.87,518.1,948.2,622.88,1026.24z"/>
				</g>
			</g>
			<path class="st3" d="M756.86,1114.96c0,0,19.74,12.64,15.59,17.21c-4.16,4.57-22.14-6.82-22.14-6.82
				S750.63,1113.71,756.86,1114.96z"/>
		</g>
		<g id="head_9_">
			<path class="st3" d="M573.98,680.12c19.93-5.04,48.63,9.07,53.15,32.39c4.51,23.32,8.75,64.02-6.02,69.2
				c-6.55,2.29-31.59,0-31.59,0l5.27,27.83H548.9l7.53-39.87C556.42,769.68,508.28,696.72,573.98,680.12z"/>
			<path class="st8" d="M593.26,709.49c-5.52,16.12,0.07,39.77-10.86,19.32c-5.34-10-13.42-7.37-17.66,0.73
				c-5.22,9.96,6.57,18.47,5.46,21.83c-1.12,3.35-11.17,17.95-13.77,18.32c-2.61,0.37-28.25-41.5-17.01-69.53
				c12.3-30.67,64.44-32.63,76.06-7.79C611.05,692.29,598.71,693.55,593.26,709.49z"/>
		</g>
		<g id="leg_7_">
			<polygon class="st5" points="540.35,1621.79 437.16,1593.79 447.73,1566.68 494.64,1569.78 544.75,1610.52 			"/>
			<polygon class="st3" points="453.39,1567.05 487.69,1569.32 494.58,1545.23 460.06,1537.83 			"/>
			<path class="st9" d="M628.74,1144.12c0,0-51.78,197.04-65.21,226.86c-9.01,20.01-39.32,124.46-55.1,183.23l-56.03-16.62
				c0.97-38.42,1.98-74.85,12.74-110.99c22.68-76.23,39.98-116.94,43.25-178.37c3.27-61.43-20.68-125.92-9.59-160.67
				C509.9,1052.82,628.74,1144.12,628.74,1144.12z"/>
		</g>
		<g id="leg_6_">
			<path class="st10" d="M502.97,1084.18c0,0,49.88,221.82,51.88,240.73c2,18.91-10.55,55.28-0.08,120.45
				c5.23,32.59,12.72,91.27,18.9,117.67l50.78,1.54c1.56-56.79,4.26-180.55,4.63-203.65c0.52-32.78,25.27-229.52,25.27-229.52
				S521.74,1038.7,502.97,1084.18z"/>
			<polygon class="st5" points="680.28,1617.47 573.39,1620.75 575.6,1591.74 621.39,1581.03 681.19,1605.41 			"/>
			<polygon class="st3" points="581.13,1590.44 614.61,1582.62 614.29,1564.26 579.18,1563.19 			"/>
		</g>
		<g id="_x30_4_Standing_10_">
			<path id="dress_4_" class="st7" d="M578.59,798.16c-20.38,1.27-54.69,14.55-62.29,63.88c-10.67,69.3-35.04,316.1-35.04,316.1
				l187.97-9.53c0,0-2.45-186.87-33.88-316.85C625.93,812.78,595.92,797.08,578.59,798.16z"/>
			<g id="hand_9_">
				<polygon class="st3" points="617.33,1157.4 620.44,1182.9 603.94,1187.05 594.86,1165.75 				"/>
				<path class="st3" d="M630.26,1202.31c-0.85-17.13-10.17-30.59-20.82-30.06c-3.1,0.15-5.97,1.47-8.45,3.71
					c-2.49,2.22-0.32,15.8,1.11,21.55c0.74,2.99,1.15,6.31,1.15,9.81c0,7.5-1.89,14.18-4.84,18.53c3.77,5.46,8.77,8.71,14.1,8.44
					C623.16,1233.76,631.11,1219.44,630.26,1202.31z"/>
			</g>
		</g>
	</g>
</g>
<g>
	<path class="st2" d="M1437.57,1625.28h-354.92c-49.82,0-90.36-40.53-90.36-90.35V700.08c0-49.82,40.53-90.36,90.36-90.36h354.92
		c49.82,0,90.35,40.54,90.35,90.36v834.85C1527.92,1584.75,1487.39,1625.28,1437.57,1625.28z M1082.65,629.1
		c-39.13,0-70.97,31.84-70.97,70.97v834.85c0,39.13,31.84,70.97,70.97,70.97h354.92c39.13,0,70.97-31.84,70.97-70.97V700.08
		c0-39.13-31.84-70.97-70.97-70.97H1082.65z"/>
</g>
<g>
	<g id="dog_2_">
		<path class="st10" d="M882.79,1534.3c10.42-21.56,46.52-25.64,65.37-25.5c17.17,0.12,14.06-26.91,18.49-30.89
			c-1.77-6.2,2.66-54.05,16.83-52.72c14.17,1.33,23.92,33.23,23.92,33.23c9.3-1.77,20.38,0,20.38,0
			c8.42-27.47,14.2-36.05,21.26-30.12c7.86,6.59,21.71,42.53,11.03,57.15c5.08,24.3,1.16,46.87-2.17,71.77
			c-1.17,8.79-4.15,16.26-8.09,22.53c-6.01,6.73-13.21,9.52-19.06,13.54c-7.03,4.82-79.76,3.86-103.54,0.48
			c0,0-16.93-8.14-27.4-2.84l0,0c-7.56,1.86-25.06,35.17-34.58,30.42C854.63,1616.01,868.19,1564.53,882.79,1534.3z"/>
		<path class="st10" d="M924.4,1511.92c-14.9-6.4-30.87-19.72-34.48-14.47c-3.61,5.25,2.98,28.88,2.98,28.88
			S931.52,1514.98,924.4,1511.92z"/>
		<path class="st10" d="M942.1,1624.22c-15.57,0.22-37.81-36.89-37.81-36.89l33.25,6.31
			C937.54,1593.63,956.21,1624.02,942.1,1624.22z"/>
		<path class="st10" d="M1074.08,1570.65c0,10.02-3.76,30.94-11.24,27.69c-12.09-5.03-8.23-19.81-8.23-19.81s-12.35,15.9-32,19.15
			c-8.59,2.09-19.09-0.81-18.7-2.29c2.2-8.14,40.75-25.31,42.67-29.6C1050.34,1557.41,1074.08,1547.21,1074.08,1570.65z"/>
		<path class="st5" d="M976.9,1514.45c3.32-3.32,24.05,14.29,32.9-13.62c3.28-10.34,3.05-20.15,1.91-28.47
			c-0.76-5.48,14.91-6.71,15.58-0.2c1.13,11,3.42,22.63,5.11,28.01c3.59,11.41,4.68,20.41,21.49,18.95
			c1.29,49.54-21.05,77.22-41.82,79.86c-7.16,0.91-10.9,0.38-12.79-2.47c-3.15-4.76-1.13-11.95-1.25-12.17
			c-3.41-6.05-12.5-16.07-17.64-35.84C976.16,1532.21,975.4,1515.95,976.9,1514.45z"/>
		<path class="st5" d="M947.84,1585.07c17.8,2.25,20.72,7.66,20.72,7.66l7.83,8.65c-24.21,1.84-71.94-6.99-76.57-10.48
			C909.42,1585.77,927.9,1582.55,947.84,1585.07z"/>
		<path class="st1" d="M1000.84,1597.87c20.64-2.9,26.94-34.65,27-34.97l6.44,1.22c-0.07,0.37-1.76,9.15-6.45,18.45
			c-3.48,6.89-7.7,12.26-12.53,15.98c-2.01,0.66-6.03,0.97-8.29,0.84C1002.88,1599.14,1000.84,1597.87,1000.84,1597.87z"/>
		<path class="st10" d="M988.87,1569.83c0,0,24.22,38.92,28.28,42.98c4.05,4.06-5.21,18.81-20.36,8.62
			c-15.14-10.19-27.61-29.94-42.5-37.6C944.59,1578.83,973.11,1562.43,988.87,1569.83z"/>
		<g>
			<path class="st5" d="M1000.73,1463.29c3.19-7.56-7.81-27.91-16.45-28.41c-8.64-0.5-13.39,35.88-10.77,38.87
				C977.44,1474.39,995.05,1468.54,1000.73,1463.29z"/>
			<path class="st5" d="M1033.28,1460.62c-1.51-6.74,6.85-21.42,12.42-22.75c7.8-1.86,15.6,37.94,10.79,41.59
				C1051.57,1476.91,1041.69,1465.1,1033.28,1460.62z"/>
			<path class="st11" d="M1030.67,1506.03c1.58,1.06-1.77,8.64-6.42,8.53c-4.65-0.11-7.2-5.87-6.31-7.75
				C1018.82,1504.93,1027.68,1504.04,1030.67,1506.03z"/>
			<path class="st11" d="M1040.77,1498.47c0,2.81,2.23,5.08,4.99,5.08c2.75,0,4.99-2.27,4.99-5.08c0-2.81-2.23-5.09-4.99-5.09
				C1043,1493.38,1040.77,1495.66,1040.77,1498.47z"/>
			<path class="st11" d="M993.04,1498.74c0,2.81,2.23,5.08,4.99,5.08c2.75,0,4.99-2.27,4.99-5.08c0-2.81-2.23-5.09-4.99-5.09
				C995.27,1493.65,993.04,1495.93,993.04,1498.74z"/>
		</g>
		<path class="st1" d="M957.63,1601.21c-4.07-4.47-9.64-11.64-14.13-21.26c-7.18-15.4-12.75-40.15,1.05-71.12
			c0.21-0.47,6.64-1.65,7.44-0.52c2.95,4.18,11.11,15.52,22.08,26.06c12.55,12.05,31.64,26.63,51.49,26.63c0.09,0,0.19,0,0.28,0
			c9.91,0,17.77-2.28,23.45-5.68c6.11-3.81,9.25-6.26,9.9-7.21c-0.26,2.5-0.88,8.24-1.21,8.56c-6.97,6.82-17.75,10.3-32.09,10.4
			c-0.11,0-0.23-0.01-0.34-0.01c-17.71,0-36.59-9.52-56.11-28.31c-9.41-9.05-16.59-18.03-20.56-23.33
			c-8.64,21.67-8.46,42.42,0.57,61.76c7.27,15.58,17.84,24.36,17.95,24.45C967.39,1601.63,964.19,1602.12,957.63,1601.21z"/>
	</g>
	<g>
		<polygon points="945.86,1503.87 788.15,1154.64 790.02,1152.28 947.68,1501.59 		"/>
		<path d="M948.35,1500.63c-3.9,0-7.07,3.17-7.07,7.07c0,1.79,0.67,3.42,1.77,4.67l1.39-3.27c-0.16-0.44-0.24-0.91-0.24-1.4
			c0-2.29,1.87-4.15,4.16-4.15c2.29,0,4.16,1.87,4.16,4.15c0,0.39-0.05,0.76-0.15,1.12l1.95,2.7c0.71-1.1,1.12-2.41,1.12-3.81
			C955.42,1503.81,952.25,1500.63,948.35,1500.63z"/>
		<g>
			<path d="M787.13,1149.21l2.06-0.32c0,0,0.49-13.51-3.06-13.98c-1.55-0.21-4.8,1.2-4.8,1.2L787.13,1149.21z"/>
			<path class="st1" d="M749.41,1159.8c-0.4,4.09,0.36,8.34,2.45,12.24c5.6,10.43,18.61,14.35,29.04,8.74
				c7.23-3.88,11.32-11.31,11.3-18.98c0.59-8.03-8.84-26.05-11.77-31.5c-3.53-6.58-11.76-9.06-18.34-5.52l-17.9,9.61
				c-6.58,3.53-9.06,11.76-5.52,18.34C740.9,1156.89,745.02,1159.4,749.41,1159.8z M776.25,1132.54c1.6,2.99,0.02,5.86-2.53,8.11
				c-4.36-0.61-8.95,0.1-13.12,2.34c-4.32,2.32-7.51,5.91-9.39,10.05c-3.62,0.33-7.12-0.24-8.37-2.56
				c-2.3-4.28-0.69-9.62,3.59-11.92c8.09-1.4,11.31-3.51,17.9-9.61C768.61,1126.65,773.96,1128.26,776.25,1132.54z"/>
			<path class="st12" d="M756.39,1169.53c4.19,7.8,13.9,10.72,21.7,6.54c7.8-4.19,10.72-13.9,6.53-21.7
				c-4.19-7.8-13.9-10.72-21.7-6.53C755.13,1152.02,752.21,1161.73,756.39,1169.53z"/>
		</g>
	</g>
	<path class="st3" d="M750.31,1124.06c0,0,18.89,14.53,22.71,12.37c3.82-2.16-8.38-19.89-8.38-19.89L750.31,1124.06z"/>
</g>
<g>
	<path class="st13" d="M1145.74,669.44c0,42.75-34.65,77.4-77.4,77.4H796.66c-42.75,0-77.4-34.65-77.4-77.4l0,0
		c0-42.75,34.65-77.4,77.4-77.4h271.68C1111.09,592.04,1145.74,626.69,1145.74,669.44L1145.74,669.44z"/>
	<g>
		<path class="st1" d="M888.81,832.44c0,26.53-21.5,48.03-48.03,48.03h-85.06c-26.53,0-48.03-21.5-48.03-48.03l0,0
			c0-26.53,21.5-48.03,48.03-48.03h85.06C867.3,784.41,888.81,805.91,888.81,832.44L888.81,832.44z"/>
		<g>
			<path class="st5" d="M770.24,831.5c0,4.39-3.56,7.95-7.95,7.95c-4.39,0-7.95-3.56-7.95-7.95c0-4.39,3.56-7.95,7.95-7.95
				C766.68,823.55,770.24,827.11,770.24,831.5z"/>
			
				<ellipse transform="matrix(0.2305 -0.9731 0.9731 0.2305 -195.3204 1415.9915)" class="st5" cx="797.67" cy="831.5" rx="7.95" ry="7.95"/>
			<path class="st5" d="M841,831.5c0,4.39-3.56,7.95-7.95,7.95c-4.39,0-7.95-3.56-7.95-7.95c0-4.39,3.56-7.95,7.95-7.95
				C837.44,823.55,841,827.11,841,831.5z"/>
		</g>
		<g>
			<path class="st5" d="M854.13,669.44c0,12.53-10.16,22.7-22.7,22.7c-12.54,0-22.7-10.16-22.7-22.7c0-12.54,10.17-22.7,22.7-22.7
				C843.97,646.75,854.13,656.91,854.13,669.44z"/>
			
				<ellipse transform="matrix(6.270744e-03 -1 1 6.270744e-03 257.2213 1597.7262)" class="st5" cx="932.5" cy="669.44" rx="22.7" ry="22.7"/>
			<path class="st5" d="M1056.27,669.44c0,12.53-10.17,22.7-22.7,22.7c-12.54,0-22.7-10.16-22.7-22.7c0-12.54,10.16-22.7,22.7-22.7
				C1046.11,646.75,1056.27,656.91,1056.27,669.44z"/>
		</g>
	</g>
</g>
</svg>
