<?xml version="1.0" encoding="utf-8"?>
<!-- Generator: Adobe Illustrator 25.4.1, SVG Export Plug-In . SVG Version: 6.00 Build 0)  -->
<svg version="1.1" id="Layer_1" xmlns="http://www.w3.org/2000/svg" xmlns:xlink="http://www.w3.org/1999/xlink" x="0px" y="0px"
	 viewBox="0 0 500 450" style="enable-background:new 0 0 500 450;" xml:space="preserve">
<style type="text/css">
	.st0{fill:#FFFFFF;}
	.st1{fill:#5C3E42;}
	.st2{clip-path:url(#SVGID_00000029725806373862639160000014768410240845021590_);fill:#76595C;}
	.st3{clip-path:url(#SVGID_00000029725806373862639160000014768410240845021590_);fill:#5C3E42;}
	.st4{clip-path:url(#SVGID_00000029725806373862639160000014768410240845021590_);fill:#97B461;}
	.st5{clip-path:url(#SVGID_00000029725806373862639160000014768410240845021590_);fill:#99CFFF;}
	.st6{clip-path:url(#SVGID_00000029725806373862639160000014768410240845021590_);fill:#7D964B;}
	.st7{clip-path:url(#SVGID_00000029725806373862639160000014768410240845021590_);fill:#312E42;}
	.st8{clip-path:url(#SVGID_00000029725806373862639160000014768410240845021590_);fill:#99D1FF;}
	.st9{clip-path:url(#SVGID_00000029725806373862639160000014768410240845021590_);fill:#C77C3E;}
	.st10{clip-path:url(#SVGID_00000029725806373862639160000014768410240845021590_);fill:#EB9650;}
</style>
<rect class="st0" width="500" height="450"/>
<g>
	<path class="st1" d="M116.97,84.13c-0.19-0.08-0.37-0.2-0.52-0.35c-0.72-0.69-0.75-1.83-0.06-2.55c3.66-3.84,9.9-8.91,18.81-11.22
		c3.55-0.92,7.23-1.33,10.94-1.21c1,0.03,1.78,0.87,1.75,1.86c-0.03,1-0.87,1.78-1.86,1.75c-3.37-0.11-6.7,0.26-9.92,1.09
		c-8.08,2.1-13.76,6.71-17.1,10.22C118.46,84.28,117.65,84.42,116.97,84.13z"/>
	<path class="st1" d="M128.02,88.94c-0.19-0.08-0.37-0.2-0.52-0.35c-0.72-0.69-0.75-1.83-0.06-2.55c3.66-3.84,9.9-8.91,18.81-11.22
		c3.55-0.92,7.23-1.33,10.94-1.21c1,0.03,1.78,0.87,1.75,1.86c-0.03,1-0.87,1.78-1.86,1.75c-3.37-0.11-6.7,0.26-9.92,1.09
		c-8.08,2.1-13.76,6.71-17.1,10.22C129.51,89.09,128.69,89.23,128.02,88.94z"/>
	<path class="st1" d="M141.73,98.15c-0.1-0.05-0.2-0.1-0.3-0.17c-0.82-0.56-1.03-1.69-0.47-2.51c3-4.38,8.34-10.38,16.76-14.09
		c3.35-1.48,6.92-2.47,10.6-2.95c0.99-0.13,1.9,0.57,2.02,1.56c0.13,0.99-0.57,1.9-1.56,2.02c-3.34,0.43-6.58,1.33-9.61,2.67
		c-7.64,3.37-12.5,8.83-15.24,12.83C143.45,98.24,142.51,98.49,141.73,98.15z"/>
	<path class="st1" d="M155.45,98.83c-0.22-0.09-0.42-0.23-0.59-0.42c-0.69-0.73-0.65-1.87,0.07-2.55
		c3.86-3.65,10.35-8.38,19.36-10.23c3.59-0.74,7.29-0.95,10.99-0.64c1,0.08,1.73,0.96,1.65,1.95c-0.08,0.99-0.96,1.73-1.95,1.65
		c-3.36-0.28-6.71-0.09-9.96,0.58c-8.18,1.68-14.09,5.99-17.61,9.32C156.87,99,156.09,99.11,155.45,98.83z"/>
	<path class="st1" d="M172.66,103.28c-0.22-0.09-0.42-0.23-0.59-0.41c-0.69-0.73-0.65-1.87,0.07-2.55
		c3.86-3.65,10.35-8.38,19.36-10.23c3.59-0.74,7.29-0.95,10.99-0.64c1,0.08,1.73,0.96,1.65,1.95c-0.08,0.99-0.96,1.73-1.95,1.65
		c-3.36-0.28-6.71-0.09-9.96,0.58c-8.18,1.68-14.09,5.99-17.61,9.32C174.08,103.45,173.31,103.56,172.66,103.28z"/>
	<path class="st1" d="M187.46,114.98c-0.23-0.04-0.46-0.12-0.68-0.25c-0.85-0.53-1.1-1.65-0.57-2.49c2.82-4.5,7.93-10.7,16.19-14.74
		c3.29-1.61,6.82-2.74,10.48-3.36c0.98-0.17,1.92,0.49,2.08,1.48c0.17,0.98-0.49,1.92-1.48,2.08c-3.32,0.56-6.52,1.59-9.5,3.05
		c-7.5,3.67-12.15,9.32-14.72,13.42C188.88,114.79,188.15,115.09,187.46,114.98z"/>
	<path class="st1" d="M212.47,112.68c-0.24,0-0.48-0.05-0.71-0.14c-0.92-0.39-1.35-1.45-0.95-2.37c2.08-4.88,6.14-11.82,13.67-17.11
		c3-2.11,6.3-3.78,9.82-4.97c0.95-0.32,1.97,0.19,2.29,1.13c0.32,0.94-0.19,1.97-1.13,2.29c-3.19,1.08-6.19,2.6-8.9,4.51
		c-6.83,4.8-10.52,11.12-12.42,15.57C213.84,112.27,213.17,112.68,212.47,112.68z"/>
	<path class="st1" d="M229.21,111.96c-0.24,0-0.48-0.05-0.71-0.14c-0.92-0.39-1.35-1.45-0.95-2.37c2.08-4.88,6.14-11.82,13.67-17.11
		c3-2.11,6.3-3.78,9.82-4.97c0.95-0.32,1.97,0.19,2.29,1.13c0.32,0.94-0.19,1.97-1.13,2.29c-3.19,1.08-6.19,2.6-8.9,4.51
		c-6.83,4.8-10.52,11.12-12.42,15.57C230.58,111.55,229.91,111.96,229.21,111.96z"/>
	<path class="st1" d="M246.52,111.96c-0.24,0-0.48-0.05-0.71-0.14c-0.92-0.39-1.35-1.45-0.95-2.37c2.08-4.88,6.14-11.82,13.67-17.11
		c3-2.11,6.3-3.78,9.82-4.97c0.95-0.32,1.97,0.19,2.29,1.13c0.32,0.94-0.19,1.97-1.13,2.29c-3.19,1.08-6.19,2.6-8.9,4.51
		c-6.83,4.8-10.52,11.12-12.42,15.57C247.89,111.55,247.23,111.96,246.52,111.96z"/>
	<path class="st1" d="M258.51,113.3c-0.32,0-0.65-0.09-0.95-0.27c-0.85-0.53-1.11-1.64-0.59-2.49c2.79-4.51,7.85-10.75,16.09-14.85
		c3.28-1.63,6.8-2.79,10.46-3.43c0.98-0.18,1.92,0.48,2.09,1.46c0.17,0.98-0.48,1.92-1.46,2.09c-3.32,0.59-6.51,1.63-9.48,3.11
		c-7.48,3.72-12.08,9.4-14.63,13.52C259.71,113,259.12,113.3,258.51,113.3z"/>
	<path class="st1" d="M272.19,113.91c-0.38,0-0.77-0.12-1.1-0.37c-0.79-0.61-0.94-1.74-0.34-2.53c3.22-4.22,8.87-9.93,17.47-13.2
		c3.42-1.3,7.04-2.11,10.74-2.39c1-0.09,1.86,0.67,1.94,1.66c0.08,1-0.67,1.86-1.66,1.94c-3.36,0.26-6.64,0.99-9.74,2.17
		c-7.81,2.97-12.95,8.17-15.88,12.02C273.27,113.66,272.73,113.91,272.19,113.91z"/>
	<path class="st1" d="M285.65,118.21c-0.38,0-0.77-0.12-1.1-0.37c-0.79-0.61-0.94-1.74-0.34-2.53c3.22-4.22,8.87-9.93,17.47-13.2
		c3.43-1.3,7.04-2.11,10.74-2.39c1-0.08,1.86,0.67,1.94,1.66c0.08,0.99-0.67,1.86-1.66,1.94c-3.36,0.26-6.64,0.99-9.74,2.17
		c-7.81,2.97-12.95,8.17-15.88,12.02C286.73,117.97,286.19,118.21,285.65,118.21z"/>
	<path class="st1" d="M296.72,123.46c-0.38,0-0.77-0.12-1.1-0.37c-0.79-0.61-0.94-1.74-0.34-2.53c3.22-4.22,8.87-9.93,17.47-13.2
		c3.42-1.3,7.04-2.11,10.74-2.39c1-0.08,1.86,0.67,1.94,1.66c0.08,1-0.67,1.86-1.66,1.94c-3.36,0.26-6.64,0.99-9.74,2.17
		c-7.81,2.97-12.95,8.17-15.88,12.02C297.81,123.21,297.27,123.46,296.72,123.46z"/>
	<path class="st1" d="M307.07,130.28c-0.38,0-0.77-0.12-1.1-0.37c-0.79-0.61-0.94-1.74-0.34-2.53c3.22-4.22,8.87-9.93,17.47-13.2
		c3.42-1.3,7.04-2.11,10.74-2.39c1-0.08,1.86,0.67,1.94,1.66c0.08,0.99-0.67,1.86-1.66,1.94c-3.36,0.26-6.64,0.99-9.74,2.17
		c-7.8,2.97-12.95,8.17-15.88,12.02C308.15,130.04,307.61,130.28,307.07,130.28z"/>
	<path class="st1" d="M315.7,136.94c-0.38,0-0.77-0.12-1.1-0.37c-0.79-0.61-0.94-1.74-0.34-2.53c3.22-4.22,8.87-9.93,17.47-13.2
		c3.42-1.3,7.04-2.11,10.74-2.39c1-0.09,1.86,0.67,1.94,1.66c0.08,1-0.67,1.86-1.66,1.94c-3.36,0.26-6.64,0.99-9.74,2.17
		c-7.81,2.97-12.95,8.17-15.88,12.02C316.79,136.69,316.25,136.94,315.7,136.94z"/>
	<path class="st1" d="M322.24,141.63c-0.38,0-0.77-0.12-1.1-0.37c-0.79-0.61-0.94-1.74-0.34-2.53c3.22-4.22,8.87-9.93,17.47-13.2
		c3.42-1.3,7.04-2.11,10.74-2.39c1-0.09,1.86,0.67,1.94,1.66c0.08,1-0.67,1.86-1.66,1.94c-3.36,0.26-6.64,0.99-9.74,2.17
		c-7.81,2.97-12.95,8.17-15.88,12.02C323.32,141.39,322.79,141.63,322.24,141.63z"/>
	<path class="st1" d="M330.66,146.08c-0.38,0-0.77-0.12-1.1-0.37c-0.79-0.61-0.94-1.74-0.34-2.53c3.22-4.22,8.87-9.93,17.47-13.2
		c3.42-1.3,7.04-2.11,10.74-2.39c1-0.09,1.86,0.67,1.94,1.66c0.08,1-0.67,1.86-1.66,1.94c-3.36,0.26-6.64,0.99-9.74,2.17
		c-7.81,2.97-12.95,8.17-15.88,12.02C331.74,145.83,331.2,146.08,330.66,146.08z"/>
	<path class="st1" d="M337.86,151.16c-0.38,0-0.77-0.12-1.1-0.37c-0.79-0.61-0.94-1.74-0.34-2.53c3.22-4.22,8.87-9.93,17.47-13.2
		c3.43-1.3,7.04-2.11,10.74-2.39c1-0.08,1.86,0.67,1.94,1.66c0.08,0.99-0.67,1.86-1.66,1.94c-3.36,0.26-6.63,0.99-9.74,2.17
		c-7.81,2.97-12.95,8.17-15.88,12.02C338.94,150.92,338.4,151.16,337.86,151.16z"/>
	<path class="st1" d="M345.34,156.53c-0.38,0-0.77-0.12-1.1-0.37c-0.79-0.61-0.94-1.74-0.34-2.53c3.22-4.22,8.87-9.93,17.47-13.2
		c3.43-1.3,7.04-2.11,10.74-2.39c1-0.08,1.86,0.67,1.94,1.66c0.08,0.99-0.67,1.86-1.66,1.94c-3.36,0.26-6.64,0.99-9.74,2.17
		c-7.81,2.97-12.95,8.17-15.88,12.02C346.42,156.28,345.88,156.53,345.34,156.53z"/>
	<g>
		<defs>
			<path id="SVGID_1_" d="M433.97,248.78c0.85-28.49-14.4-50.21-20.07-57.82c-23.4-31.36-56.49-54.57-92.47-74.23
				c-15.35-8.74-36.08-14.79-60.92-16.55c-24.3-1.72-48.07,1.92-68.87,4.4c-5.89,0.7-41.33-19.33-41.33-19.33
				c-7.22-3.68-16.48-7.86-20.27-8.78c-7.88-1.92-16.08-2.44-26.31,1.03c-11.32,3.84-12.97,6.92-15.51,13.35l-6.4,2.92
				c-7.55,2.88-16.05,10.48-13.29,18.08c1.53,4.23,4.79,7.33,8.69,8.81l0.92,45.39c0.21,10.29,8.71,18.45,19,18.25
				c14.09-0.22,28.92-14.25,36.42-33.7c1.04,1.9,2.17,3.8,3.38,5.67c5.27,8.19,13.2,14.13,22.26,17.05
				c1.22,0.99,2.65,1.77,4.26,2.24l13.42,3.95c3.08,1.86,3.69,6.07,1.26,8.73l-10.06,11.53c-0.75,0.38-1.41,0.89-1.96,1.5
				c-5.17-0.91-10.22-1.15-14.78-0.69c-1.45,0.15-4.48,0.45-6.63,2.79c-1.1,1.2-1.8,2.71-2.09,4.49c-0.16,0.99,0.51,1.91,1.5,2.07
				c0.1,0.02,0.19,0.02,0.29,0.02c0.87,0,1.64-0.63,1.78-1.52c0.17-1.07,0.57-1.95,1.18-2.61c1.13-1.23,2.83-1.49,4.33-1.64
				c3.96-0.4,8.35-0.22,12.86,0.5c-0.03,0.23-0.04,0.45-0.04,0.68c0,0.18,0.01,0.35,0.03,0.53c-8.58,2.85-17.35,6.92-18.13,13.39
				c-0.49,4.08,2.61,7.2,4.96,7.55c0.09,0.01,0.18,0.02,0.27,0.02c0.88,0,1.66-0.64,1.79-1.54c0.15-0.99-0.53-1.9-1.51-2.05
				c-0.47-0.11-2.16-1.46-1.91-3.54c0.43-3.57,5.79-7.09,15.94-10.47c0.64,0.77,1.46,1.4,2.41,1.83c-2.51,3.76-4.5,7.63-5.85,11.4
				c-0.49,1.38-1.52,4.24-0.33,7.19c0.61,1.51,1.67,2.79,3.15,3.82c0.31,0.22,0.67,0.32,1.03,0.32c0.57,0,1.14-0.27,1.49-0.78
				c0.57-0.82,0.36-1.95-0.46-2.51c-0.89-0.62-1.51-1.35-1.85-2.19c-0.62-1.54-0.13-3.19,0.38-4.62c1.42-3.96,3.62-8.06,6.42-12.02
				c2.21-0.29,4.07-1.55,5.08-3.31l0.05,0.04l26.02-25.57c1.9-1.86,2.8-4.29,2.79-6.7l67.32,1.49c-1.13,1.69-1.69,3.78-1.41,5.95
				l0.27,2.07c0.93,7.23,5.56,13.45,12.22,16.41l10.17,4.52l-11.06,4.91c-0.19-0.43-0.55-0.79-1.03-0.96
				c-2.91-1.06-5.88-1.99-8.83-2.77c-6.2-1.65-12.39-2.34-17.9-1.98c-1.46,0.09-4.49,0.29-6.73,2.55c-1.14,1.16-1.9,2.64-2.25,4.41
				c-0.19,0.98,0.44,1.93,1.42,2.12c0.12,0.02,0.24,0.03,0.35,0.03c0.84,0,1.6-0.6,1.77-1.46c0.21-1.06,0.64-1.93,1.27-2.57
				c1.17-1.18,2.88-1.39,4.39-1.49c5.12-0.33,10.9,0.31,16.73,1.86c2.25,0.6,4.51,1.29,6.74,2.06c-0.69,0.58-1.26,1.28-1.65,2.07
				c-0.89,0.13-1.78,0.25-2.68,0.35c-11.36,1.28-23.63,3.24-25.25,10.43c-1.09,4.82,1.12,9.4,3.78,10.5
				c0.22,0.09,0.46,0.14,0.69,0.14c0.71,0,1.38-0.42,1.67-1.12c0.38-0.92-0.06-1.98-0.98-2.36c-0.72-0.3-2.41-2.95-1.64-6.36
				c1.19-5.28,15.86-6.93,22.13-7.64c0.58-0.07,1.17-0.14,1.75-0.22c0.5,2.73,2.86,4.87,5.84,5.24c-4.03,4.84-7.2,10.05-9.19,15.1
				c-0.53,1.36-1.65,4.19-0.55,7.17c0.56,1.53,1.58,2.84,3.03,3.91c0.32,0.24,0.7,0.35,1.07,0.35c0.56,0,1.1-0.25,1.46-0.74
				c0.59-0.8,0.42-1.93-0.38-2.53c-0.87-0.64-1.47-1.4-1.78-2.25c-0.57-1.56-0.03-3.2,0.52-4.6c1.88-4.78,4.92-9.74,8.8-14.35
				c1.06-1.26,2.17-2.51,3.31-3.73c0.46-0.36,0.86-0.76,1.15-1.22l36.27-14.53c4.39-1.71,4.58-7.85,0.31-9.83
				c-2.34,0-2.94-2.99-1.23-4.07l3.2-0.68c1.19-0.25,2.34-0.61,3.44-1.04l26.78-6.41c19.41,8.76,46.4,33.72,49.06,64.17
				c3.04,34.8-31.74,74.71-37.85,91.58c-5.09,14.08-6.93,54.03,31.56,73.88c1.49,0.77,2.91,1.63,4.15,0.49
				c1.01-0.92,1.52-2.75,0.43-3.58c-32.54-24.73-30.22-50.88-19.35-69.35C396.69,326.62,432.68,291.74,433.97,248.78z"/>
		</defs>
		<clipPath id="SVGID_00000105409752141391898600000001334594140925162378_">
			<use xlink:href="#SVGID_1_"  style="overflow:visible;"/>
		</clipPath>
		<path style="clip-path:url(#SVGID_00000105409752141391898600000001334594140925162378_);fill:#76595C;" d="M111.18,82.83
			c-0.19-0.08-0.37-0.2-0.52-0.35c-0.72-0.69-0.75-1.83-0.06-2.55c3.66-3.84,9.9-8.91,18.81-11.22c3.55-0.92,7.23-1.33,10.94-1.21
			c1,0.03,1.78,0.87,1.75,1.86c-0.03,1-0.87,1.78-1.86,1.75c-3.37-0.11-6.7,0.26-9.92,1.09c-8.08,2.1-13.76,6.71-17.1,10.22
			C112.68,82.98,111.86,83.12,111.18,82.83z"/>
		<path style="clip-path:url(#SVGID_00000105409752141391898600000001334594140925162378_);fill:#76595C;" d="M122.23,87.64
			c-0.19-0.08-0.37-0.2-0.52-0.35c-0.72-0.69-0.75-1.83-0.06-2.55c3.66-3.84,9.9-8.91,18.81-11.22c3.55-0.92,7.23-1.33,10.94-1.21
			c1,0.03,1.78,0.87,1.75,1.86c-0.03,1-0.87,1.78-1.86,1.75c-3.37-0.11-6.7,0.26-9.92,1.09c-8.08,2.1-13.76,6.71-17.1,10.22
			C123.72,87.79,122.9,87.93,122.23,87.64z"/>
		<path style="clip-path:url(#SVGID_00000105409752141391898600000001334594140925162378_);fill:#76595C;" d="M135.95,96.85
			c-0.1-0.05-0.2-0.1-0.3-0.17c-0.82-0.56-1.03-1.69-0.47-2.51c3-4.38,8.34-10.38,16.76-14.09c3.35-1.48,6.92-2.47,10.6-2.95
			c0.99-0.13,1.9,0.57,2.02,1.56c0.13,0.99-0.57,1.9-1.56,2.02c-3.34,0.43-6.58,1.33-9.61,2.67c-7.64,3.37-12.5,8.83-15.24,12.83
			C137.66,96.94,136.72,97.19,135.95,96.85z"/>
		<path style="clip-path:url(#SVGID_00000105409752141391898600000001334594140925162378_);fill:#76595C;" d="M149.66,97.53
			c-0.22-0.09-0.42-0.23-0.59-0.42c-0.69-0.73-0.65-1.87,0.07-2.55c3.86-3.65,10.35-8.38,19.36-10.23
			c3.59-0.74,7.29-0.95,10.99-0.64c1,0.08,1.73,0.96,1.65,1.95c-0.08,0.99-0.96,1.73-1.95,1.65c-3.36-0.28-6.71-0.09-9.96,0.58
			c-8.18,1.68-14.09,5.99-17.61,9.32C151.08,97.7,150.3,97.81,149.66,97.53z"/>
		<path style="clip-path:url(#SVGID_00000105409752141391898600000001334594140925162378_);fill:#76595C;" d="M166.87,101.98
			c-0.22-0.09-0.42-0.23-0.59-0.41c-0.69-0.73-0.65-1.87,0.07-2.55c3.86-3.65,10.35-8.38,19.36-10.23
			c3.59-0.74,7.29-0.95,10.99-0.64c1,0.08,1.73,0.96,1.65,1.95c-0.08,0.99-0.96,1.73-1.95,1.65c-3.36-0.28-6.71-0.09-9.96,0.58
			c-8.18,1.68-14.09,5.99-17.61,9.32C168.29,102.15,167.52,102.26,166.87,101.98z"/>
		<path style="clip-path:url(#SVGID_00000105409752141391898600000001334594140925162378_);fill:#76595C;" d="M181.67,113.68
			c-0.23-0.04-0.46-0.12-0.68-0.25c-0.85-0.53-1.1-1.65-0.57-2.49c2.82-4.5,7.93-10.7,16.19-14.74c3.29-1.61,6.82-2.74,10.48-3.36
			c0.98-0.17,1.92,0.49,2.08,1.48c0.17,0.98-0.49,1.92-1.48,2.08c-3.32,0.56-6.52,1.59-9.5,3.05c-7.5,3.67-12.15,9.32-14.72,13.42
			C183.09,113.49,182.36,113.79,181.67,113.68z"/>
		<path style="clip-path:url(#SVGID_00000105409752141391898600000001334594140925162378_);fill:#76595C;" d="M206.68,111.38
			c-0.24,0-0.48-0.05-0.71-0.14c-0.92-0.39-1.35-1.45-0.95-2.37c2.08-4.89,6.14-11.82,13.67-17.11c3-2.11,6.3-3.78,9.82-4.97
			c0.95-0.32,1.97,0.19,2.29,1.13c0.32,0.94-0.19,1.97-1.13,2.29c-3.19,1.08-6.19,2.6-8.9,4.51c-6.83,4.8-10.52,11.12-12.42,15.57
			C208.05,110.97,207.39,111.38,206.68,111.38z"/>
		<path style="clip-path:url(#SVGID_00000105409752141391898600000001334594140925162378_);fill:#76595C;" d="M223.42,110.66
			c-0.24,0-0.48-0.05-0.71-0.14c-0.92-0.39-1.35-1.45-0.95-2.37c2.08-4.88,6.14-11.82,13.67-17.11c3-2.11,6.3-3.78,9.82-4.97
			c0.95-0.32,1.97,0.19,2.29,1.13c0.32,0.94-0.19,1.97-1.13,2.29c-3.19,1.08-6.19,2.6-8.9,4.51c-6.83,4.81-10.52,11.12-12.42,15.57
			C224.79,110.25,224.12,110.66,223.42,110.66z"/>
		<path style="clip-path:url(#SVGID_00000105409752141391898600000001334594140925162378_);fill:#76595C;" d="M240.73,110.66
			c-0.24,0-0.48-0.05-0.71-0.14c-0.92-0.39-1.35-1.45-0.95-2.37c2.08-4.88,6.14-11.82,13.67-17.11c3-2.11,6.3-3.78,9.82-4.97
			c0.95-0.32,1.97,0.19,2.29,1.13c0.32,0.94-0.19,1.97-1.13,2.29c-3.19,1.08-6.19,2.6-8.9,4.51c-6.83,4.81-10.52,11.12-12.42,15.57
			C242.1,110.25,241.44,110.66,240.73,110.66z"/>
		<path style="clip-path:url(#SVGID_00000105409752141391898600000001334594140925162378_);fill:#76595C;" d="M252.72,112
			c-0.32,0-0.65-0.09-0.95-0.27c-0.85-0.53-1.11-1.64-0.59-2.49c2.79-4.51,7.85-10.75,16.09-14.85c3.28-1.63,6.8-2.79,10.46-3.43
			c0.98-0.18,1.92,0.48,2.09,1.46c0.17,0.98-0.48,1.92-1.46,2.09c-3.32,0.59-6.51,1.63-9.48,3.11c-7.48,3.72-12.08,9.4-14.63,13.52
			C253.92,111.7,253.33,112,252.72,112z"/>
		<path style="clip-path:url(#SVGID_00000105409752141391898600000001334594140925162378_);fill:#76595C;" d="M266.4,112.61
			c-0.38,0-0.77-0.12-1.1-0.37c-0.79-0.61-0.94-1.74-0.34-2.53c3.22-4.22,8.87-9.93,17.47-13.2c3.42-1.3,7.04-2.11,10.74-2.39
			c1-0.09,1.86,0.67,1.94,1.66c0.08,1-0.67,1.86-1.66,1.94c-3.36,0.26-6.64,0.99-9.74,2.17c-7.81,2.97-12.95,8.17-15.88,12.02
			C267.48,112.36,266.94,112.61,266.4,112.61z"/>
		<path style="clip-path:url(#SVGID_00000105409752141391898600000001334594140925162378_);fill:#76595C;" d="M279.86,116.91
			c-0.38,0-0.77-0.12-1.1-0.37c-0.79-0.61-0.94-1.74-0.34-2.53c3.22-4.22,8.87-9.94,17.47-13.2c3.43-1.3,7.04-2.11,10.74-2.39
			c1-0.08,1.86,0.67,1.94,1.66c0.08,0.99-0.67,1.86-1.66,1.94c-3.36,0.26-6.64,0.99-9.74,2.17c-7.81,2.97-12.95,8.17-15.88,12.02
			C280.94,116.67,280.4,116.91,279.86,116.91z"/>
		<path style="clip-path:url(#SVGID_00000105409752141391898600000001334594140925162378_);fill:#76595C;" d="M290.94,122.16
			c-0.38,0-0.77-0.12-1.1-0.37c-0.79-0.61-0.94-1.74-0.34-2.53c3.22-4.22,8.87-9.93,17.47-13.2c3.42-1.3,7.04-2.11,10.74-2.39
			c1-0.08,1.86,0.67,1.94,1.66c0.08,1-0.67,1.86-1.66,1.94c-3.36,0.26-6.64,0.99-9.74,2.17c-7.81,2.97-12.95,8.17-15.88,12.02
			C292.02,121.91,291.48,122.16,290.94,122.16z"/>
		<path style="clip-path:url(#SVGID_00000105409752141391898600000001334594140925162378_);fill:#76595C;" d="M301.28,128.98
			c-0.38,0-0.77-0.12-1.1-0.37c-0.79-0.61-0.94-1.74-0.34-2.53c3.22-4.22,8.87-9.93,17.47-13.2c3.42-1.3,7.04-2.11,10.74-2.39
			c1-0.08,1.86,0.67,1.94,1.66c0.08,0.99-0.67,1.86-1.66,1.94c-3.36,0.26-6.64,0.99-9.74,2.17c-7.8,2.97-12.95,8.17-15.88,12.02
			C302.36,128.74,301.82,128.98,301.28,128.98z"/>
		<path style="clip-path:url(#SVGID_00000105409752141391898600000001334594140925162378_);fill:#76595C;" d="M309.92,135.64
			c-0.38,0-0.77-0.12-1.1-0.37c-0.79-0.61-0.95-1.74-0.34-2.53c3.22-4.22,8.87-9.93,17.47-13.2c3.42-1.3,7.04-2.11,10.74-2.39
			c1-0.09,1.86,0.67,1.94,1.66c0.08,1-0.67,1.86-1.66,1.94c-3.36,0.26-6.64,0.99-9.74,2.17c-7.81,2.97-12.95,8.17-15.88,12.02
			C311,135.39,310.46,135.64,309.92,135.64z"/>
		<path style="clip-path:url(#SVGID_00000105409752141391898600000001334594140925162378_);fill:#76595C;" d="M316.45,140.33
			c-0.38,0-0.77-0.12-1.1-0.37c-0.79-0.61-0.94-1.74-0.34-2.53c3.22-4.22,8.87-9.93,17.47-13.2c3.42-1.3,7.04-2.11,10.74-2.39
			c1-0.09,1.86,0.67,1.94,1.66c0.08,1-0.67,1.86-1.66,1.94c-3.36,0.26-6.64,0.99-9.74,2.17c-7.81,2.97-12.95,8.17-15.88,12.02
			C317.53,140.09,317,140.33,316.45,140.33z"/>
		<path style="clip-path:url(#SVGID_00000105409752141391898600000001334594140925162378_);fill:#76595C;" d="M324.87,144.78
			c-0.38,0-0.77-0.12-1.1-0.37c-0.79-0.61-0.94-1.74-0.34-2.53c3.22-4.22,8.87-9.93,17.47-13.2c3.42-1.3,7.04-2.11,10.74-2.39
			c1-0.09,1.86,0.67,1.94,1.66c0.08,1-0.67,1.86-1.66,1.94c-3.36,0.26-6.64,0.99-9.74,2.17c-7.81,2.97-12.95,8.17-15.88,12.02
			C325.95,144.53,325.41,144.78,324.87,144.78z"/>
		<path style="clip-path:url(#SVGID_00000105409752141391898600000001334594140925162378_);fill:#76595C;" d="M332.07,149.86
			c-0.38,0-0.77-0.12-1.1-0.37c-0.79-0.61-0.94-1.74-0.34-2.53c3.22-4.22,8.87-9.93,17.47-13.2c3.43-1.3,7.04-2.11,10.74-2.39
			c1-0.08,1.86,0.67,1.94,1.66c0.08,0.99-0.67,1.86-1.66,1.94c-3.36,0.26-6.63,0.99-9.74,2.17c-7.81,2.97-12.95,8.17-15.88,12.02
			C333.15,149.62,332.62,149.86,332.07,149.86z"/>
		<path style="clip-path:url(#SVGID_00000105409752141391898600000001334594140925162378_);fill:#76595C;" d="M339.55,155.23
			c-0.38,0-0.77-0.12-1.1-0.37c-0.79-0.61-0.95-1.74-0.34-2.53c3.22-4.22,8.87-9.93,17.47-13.2c3.43-1.3,7.04-2.11,10.74-2.39
			c1-0.08,1.86,0.67,1.94,1.66c0.08,0.99-0.67,1.86-1.66,1.94c-3.36,0.26-6.64,0.99-9.74,2.17c-7.81,2.97-12.95,8.17-15.88,12.02
			C340.63,154.98,340.09,155.23,339.55,155.23z"/>
		<path style="clip-path:url(#SVGID_00000105409752141391898600000001334594140925162378_);fill:#5C3E42;" d="M286.63,114.82
			c37.33,20.07,35.99,53.43,72.81,70.05c19.41,8.76,46.4,33.72,49.06,64.17c3.04,34.8-31.74,74.71-37.85,91.58
			c-5.09,14.08-6.93,54.03,31.56,73.88c1.49,0.77,2.91,1.63,4.15,0.49c1.01-0.92,1.52-2.75,0.43-3.58
			c-32.54-24.73-30.22-50.88-19.35-69.35c9.1-15.45,45.09-50.33,46.38-93.29c0.86-28.49-14.4-50.21-20.07-57.81
			c-24.16-32.38-58.65-56.07-95.98-76.13H286.63z"/>
		<path style="clip-path:url(#SVGID_00000105409752141391898600000001334594140925162378_);fill:#97B461;" d="M260.36,100.18
			c-24.3-1.72-48.07,1.92-68.87,4.4c-5.89,0.7-41.33-19.33-41.33-19.33s-23.36,20.76-22.6,47.65c0.37,12.99,13.83,31.49,24.07,42.01
			l186.29,4.13c0,0,12.4-9.69,12.98-17.95C353.04,131.02,317.56,104.22,260.36,100.18z"/>
		
			<ellipse style="clip-path:url(#SVGID_00000105409752141391898600000001334594140925162378_);fill:#99CFFF;" cx="236.88" cy="174.64" rx="70.01" ry="29.14"/>
		<path style="clip-path:url(#SVGID_00000105409752141391898600000001334594140925162378_);fill:#7D964B;" d="M175.86,183.19
			l-29.35,6.25c-11.73,2.5-23.37-5.06-25.86-16.78c-2.5-11.73,5.06-23.37,16.78-25.86l29.35-6.25c11.73-2.5,23.37,5.06,25.86,16.78
			C195.14,169.06,187.59,180.69,175.86,183.19z"/>
		<path style="clip-path:url(#SVGID_00000105409752141391898600000001334594140925162378_);fill:#312E42;" d="M254.46,236.78
			c-0.23,0-0.46-0.04-0.69-0.14c-2.66-1.1-4.87-5.68-3.78-10.5c1.62-7.19,13.88-9.15,25.25-10.43c3.11-0.35,6.22-0.88,9.23-1.57
			c0.97-0.22,1.94,0.38,2.17,1.36c0.22,0.97-0.38,1.94-1.36,2.17c-3.15,0.72-6.39,1.28-9.64,1.64c-6.26,0.7-20.93,2.35-22.13,7.64
			c-0.77,3.42,0.91,6.07,1.64,6.36c0.92,0.38,1.36,1.44,0.98,2.36C255.85,236.36,255.18,236.78,254.46,236.78z"/>
		<path style="clip-path:url(#SVGID_00000105409752141391898600000001334594140925162378_);fill:#312E42;" d="M151.66,226.89
			c-0.09,0-0.18-0.01-0.27-0.02c-2.35-0.35-5.45-3.46-4.96-7.55c0.87-7.26,11.81-11.5,21.25-14.38c0.63-0.19,1.35-0.41,1.54-0.49
			c0.88-0.43,1.95-0.07,2.4,0.81c0.45,0.89,0.09,1.98-0.8,2.43c-0.33,0.17-0.8,0.31-2.09,0.71c-11.95,3.65-18.25,7.47-18.72,11.36
			c-0.25,2.08,1.45,3.44,1.91,3.54c0.99,0.15,1.66,1.07,1.51,2.05C153.31,226.25,152.54,226.89,151.66,226.89z"/>
		<path style="clip-path:url(#SVGID_00000105409752141391898600000001334594140925162378_);fill:#312E42;" d="M277.6,250.85
			c-0.37,0-0.75-0.11-1.07-0.35c-1.45-1.07-2.47-2.38-3.03-3.91c-1.1-2.98,0.01-5.81,0.55-7.17c2.02-5.14,5.27-10.45,9.4-15.36
			c1.96-2.33,4.07-4.62,6.26-6.81c0.71-0.7,1.85-0.7,2.56,0.01c0.7,0.71,0.7,1.85-0.01,2.56c-2.12,2.11-4.16,4.32-6.05,6.57
			c-3.88,4.61-6.92,9.58-8.8,14.35c-0.55,1.41-1.1,3.04-0.52,4.6c0.31,0.85,0.91,1.6,1.78,2.25c0.8,0.59,0.98,1.72,0.38,2.53
			C278.7,250.6,278.16,250.85,277.6,250.85z"/>
		<path style="clip-path:url(#SVGID_00000105409752141391898600000001334594140925162378_);fill:#312E42;" d="M166.33,233.81
			c-0.35,0-0.71-0.1-1.03-0.32c-1.48-1.02-2.54-2.31-3.15-3.82c-1.19-2.95-0.16-5.81,0.33-7.19c1.86-5.19,4.95-10.6,8.93-15.64
			c0.62-0.78,1.75-0.92,2.54-0.3c0.78,0.62,0.92,1.76,0.3,2.54c-3.74,4.73-6.63,9.78-8.36,14.61c-0.51,1.42-1,3.07-0.38,4.62
			c0.34,0.84,0.96,1.58,1.85,2.19c0.82,0.57,1.03,1.69,0.46,2.51C167.46,233.54,166.9,233.81,166.33,233.81z"/>
		<path style="clip-path:url(#SVGID_00000105409752141391898600000001334594140925162378_);fill:#312E42;" d="M144.37,209.98
			c-0.1,0-0.19-0.01-0.29-0.02c-0.98-0.16-1.66-1.09-1.5-2.07c0.29-1.78,0.99-3.29,2.09-4.49c2.15-2.34,5.18-2.65,6.63-2.79
			c5.49-0.55,11.7-0.09,17.96,1.33c0.97,0.22,1.58,1.19,1.36,2.16c-0.22,0.97-1.19,1.58-2.16,1.36c-5.88-1.34-11.68-1.78-16.79-1.26
			c-1.51,0.15-3.21,0.42-4.33,1.64c-0.61,0.67-1.01,1.55-1.18,2.61C146.01,209.35,145.25,209.98,144.37,209.98z"/>
		<path style="clip-path:url(#SVGID_00000105409752141391898600000001334594140925162378_);fill:#312E42;" d="M248.66,214.89
			c-0.12,0-0.23-0.01-0.35-0.03c-0.98-0.19-1.62-1.14-1.42-2.12c0.35-1.77,1.11-3.25,2.25-4.41c2.23-2.26,5.27-2.46,6.73-2.55
			c5.5-0.36,11.69,0.33,17.9,1.98c2.95,0.79,5.92,1.72,8.83,2.77c0.94,0.34,1.42,1.38,1.08,2.31c-0.34,0.94-1.38,1.42-2.31,1.08
			c-2.81-1.02-5.68-1.92-8.52-2.68c-5.83-1.55-11.62-2.2-16.73-1.86c-1.51,0.1-3.22,0.3-4.39,1.49c-0.64,0.64-1.06,1.51-1.28,2.57
			C250.26,214.29,249.51,214.89,248.66,214.89z"/>
		<path style="clip-path:url(#SVGID_00000105409752141391898600000001334594140925162378_);fill:#97B461;" d="M327.84,192.47
			l31.72-7.59c0,0,20.74-38.68-8.29-69.64c-5.68-6.06-37.91-5.51-37.91-5.51S325.59,193.01,327.84,192.47z"/>
		<path style="clip-path:url(#SVGID_00000105409752141391898600000001334594140925162378_);fill:#7D964B;" d="M329.23,192.32
			l-29.35,6.25c-11.73,2.5-23.37-5.06-25.86-16.78c-2.5-11.73,5.06-23.37,16.78-25.86l29.35-6.25c11.73-2.5,23.37,5.06,25.86,16.78
			C348.51,178.19,340.96,189.82,329.23,192.32z"/>
		<path style="clip-path:url(#SVGID_00000105409752141391898600000001334594140925162378_);fill:#99D1FF;" d="M162.51,125.95
			l-0.02,0.01c-1.37,0.79-3.14,0.32-3.94-1.06l-0.58-1c-0.79-1.37-0.32-3.14,1.06-3.94l0.02-0.01c1.37-0.79,3.14-0.32,3.94,1.06
			l0.58,1C164.36,123.38,163.89,125.15,162.51,125.95z"/>
		<path style="clip-path:url(#SVGID_00000105409752141391898600000001334594140925162378_);fill:#99D1FF;" d="M183.89,134.58
			l-0.02,0.01c-1.37,0.79-3.14,0.32-3.94-1.05l-0.58-1c-0.79-1.37-0.32-3.14,1.06-3.94l0.02-0.01c1.37-0.79,3.14-0.32,3.94,1.06
			l0.58,1C185.74,132.01,185.27,133.79,183.89,134.58z"/>
		<path style="clip-path:url(#SVGID_00000105409752141391898600000001334594140925162378_);fill:#99D1FF;" d="M193.83,122.22
			l-0.02,0.01c-1.37,0.79-3.14,0.32-3.94-1.06l-0.58-1c-0.79-1.37-0.32-3.14,1.06-3.94l0.02-0.01c1.37-0.79,3.14-0.32,3.94,1.06
			l0.58,1C195.68,119.65,195.2,121.42,193.83,122.22z"/>
		<path style="clip-path:url(#SVGID_00000105409752141391898600000001334594140925162378_);fill:#99D1FF;" d="M211.03,139.28
			l-0.02,0.01c-1.37,0.79-3.14,0.32-3.94-1.06l-0.58-1c-0.79-1.37-0.32-3.14,1.06-3.94l0.02-0.01c1.37-0.79,3.14-0.32,3.94,1.06
			l0.58,1C212.88,136.71,212.4,138.49,211.03,139.28z"/>
		<path style="clip-path:url(#SVGID_00000105409752141391898600000001334594140925162378_);fill:#99D1FF;" d="M228.42,117.85
			l-0.02,0.01c-1.37,0.79-3.14,0.32-3.94-1.06l-0.58-1c-0.79-1.37-0.32-3.14,1.05-3.94l0.02-0.01c1.37-0.79,3.14-0.32,3.94,1.06
			l0.58,1C230.27,115.29,229.8,117.06,228.42,117.85z"/>
		<path style="clip-path:url(#SVGID_00000105409752141391898600000001334594140925162378_);fill:#99D1FF;" d="M258.74,137.83
			l-0.02,0.01c-1.37,0.79-3.14,0.32-3.94-1.06l-0.58-1c-0.79-1.37-0.32-3.14,1.06-3.94l0.02-0.01c1.37-0.79,3.14-0.32,3.94,1.06
			l0.58,1C260.58,135.26,260.11,137.03,258.74,137.83z"/>
		<path style="clip-path:url(#SVGID_00000105409752141391898600000001334594140925162378_);fill:#99D1FF;" d="M272.74,117.2
			L272.74,117.2c-1.38,0.8-3.16,0.32-3.95-1.06l-0.57-0.98c-0.8-1.38-0.32-3.16,1.06-3.95l0,0c1.38-0.8,3.16-0.32,3.95,1.06
			l0.57,0.98C274.6,114.62,274.12,116.4,272.74,117.2z"/>
		<path style="clip-path:url(#SVGID_00000105409752141391898600000001334594140925162378_);fill:#99D1FF;" d="M287.21,137.68
			L287.21,137.68c-1.38,0.8-3.16,0.32-3.95-1.06l-0.57-0.98c-0.8-1.38-0.32-3.16,1.06-3.95v0c1.38-0.8,3.16-0.32,3.95,1.06
			l0.57,0.98C289.07,135.11,288.59,136.89,287.21,137.68z"/>
		<path style="clip-path:url(#SVGID_00000105409752141391898600000001334594140925162378_);fill:#99D1FF;" d="M299.79,125.01
			L299.79,125.01c-1.38,0.8-3.16,0.32-3.95-1.06l-0.57-0.98c-0.8-1.38-0.32-3.16,1.06-3.95l0,0c1.38-0.8,3.16-0.32,3.95,1.06
			l0.57,0.98C301.65,122.44,301.17,124.22,299.79,125.01z"/>
		<path style="clip-path:url(#SVGID_00000105409752141391898600000001334594140925162378_);fill:#99D1FF;" d="M310.96,139.38
			l-0.02,0.01c-1.37,0.79-3.14,0.32-3.94-1.06l-0.58-1c-0.79-1.37-0.32-3.14,1.06-3.94l0.02-0.01c1.37-0.79,3.14-0.32,3.94,1.06
			l0.58,1C312.81,136.82,312.33,138.59,310.96,139.38z"/>
		<path style="clip-path:url(#SVGID_00000105409752141391898600000001334594140925162378_);fill:#312E42;" d="M214.56,200.53
			c-1.65,0-3.1-1.2-3.37-2.88l-6.74-42.81c-0.29-1.86,0.98-3.61,2.84-3.9c1.86-0.29,3.61,0.98,3.9,2.84l6.74,42.81
			c0.29,1.86-0.98,3.61-2.84,3.9C214.92,200.52,214.74,200.53,214.56,200.53z"/>
		<path style="clip-path:url(#SVGID_00000105409752141391898600000001334594140925162378_);fill:#312E42;" d="M240.24,199.93
			c-1.65,0-3.1-1.2-3.37-2.88l-6.74-42.81c-0.29-1.86,0.98-3.61,2.84-3.9c1.86-0.29,3.61,0.98,3.9,2.84l6.74,42.81
			c0.29,1.86-0.98,3.61-2.84,3.9C240.59,199.92,240.42,199.93,240.24,199.93z"/>
		<path style="clip-path:url(#SVGID_00000105409752141391898600000001334594140925162378_);fill:#312E42;" d="M265.53,200.18
			c-1.65,0-3.1-1.2-3.37-2.88l-6.74-42.81c-0.29-1.86,0.98-3.61,2.84-3.9c1.86-0.29,3.61,0.98,3.9,2.84l6.74,42.81
			c0.29,1.86-0.98,3.61-2.84,3.9C265.89,200.17,265.71,200.18,265.53,200.18z"/>
		<path style="clip-path:url(#SVGID_00000105409752141391898600000001334594140925162378_);fill:#97B461;" d="M359.99,219.23
			c-0.82,0-1.65-0.3-2.31-0.9c-1.39-1.27-1.48-3.43-0.21-4.82l29.31-31.92c1.28-1.39,3.43-1.48,4.82-0.21
			c1.39,1.27,1.48,3.43,0.21,4.82l-29.31,31.92C361.83,218.86,360.91,219.23,359.99,219.23z"/>
		<path style="clip-path:url(#SVGID_00000105409752141391898600000001334594140925162378_);fill:#97B461;" d="M376.75,239.51
			c-0.82,0-1.65-0.3-2.31-0.9c-1.39-1.27-1.48-3.43-0.21-4.82l29.31-31.92c1.27-1.39,3.43-1.48,4.82-0.21
			c1.39,1.27,1.48,3.43,0.21,4.82l-29.31,31.92C378.59,239.13,377.67,239.51,376.75,239.51z"/>
		
			<rect x="355.82" y="347.64" transform="matrix(0.0201 -0.9998 0.9998 0.0201 -1.3435 736.9852)" style="clip-path:url(#SVGID_00000105409752141391898600000001334594140925162378_);fill:#C77C3E;" width="38.94" height="43.08"/>
		
			<rect x="392.98" y="273.13" transform="matrix(0.0482 -0.9988 0.9988 0.0482 84.9046 705.1379)" style="clip-path:url(#SVGID_00000105409752141391898600000001334594140925162378_);fill:#C77C3E;" width="38.94" height="69.78"/>
		
			<rect x="404.19" y="211.24" transform="matrix(0.0482 -0.9988 0.9988 0.0482 157.3827 657.4263)" style="clip-path:url(#SVGID_00000105409752141391898600000001334594140925162378_);fill:#C77C3E;" width="38.94" height="69.78"/>
		<path style="clip-path:url(#SVGID_00000105409752141391898600000001334594140925162378_);fill:#EB9650;" d="M201.77,168.44
			l-25.15-15.9c-7.83-4.95-18.24-1.36-21.35,7.37c-2.35,6.59,1.32,13.8,8.03,15.78l13.42,3.95c3.08,1.86,3.69,6.07,1.26,8.73
			l-10.06,11.53c-2.13,1.08-3.57,3.18-3.57,5.59c0,3.51,3.07,6.36,6.85,6.36c2.62,0,4.89-1.37,6.04-3.37l0.05,0.04l26.02-25.57
			C207.61,178.75,206.85,171.65,201.77,168.44z"/>
		<path style="clip-path:url(#SVGID_00000105409752141391898600000001334594140925162378_);fill:#EB9650;" d="M327.26,197.07
			c-2.63,0-3.07-3.76-0.52-4.37l32.7-7.82l-9.35-4.33c-17.4-8.06-36.71-11.04-55.73-8.61l-15.22,1.94c-4.58,0.82-7.72,5.08-7.13,9.7
			l0.26,2.07c0.93,7.23,5.56,13.45,12.22,16.41l10.17,4.52l-15.07,6.7c-1.41,1.17-2.31,2.86-2.31,4.76c0,3.51,3.07,6.36,6.85,6.36
			c2.49,0,5.34-1.1,6.53-2.94l36.27-14.53C331.34,205.19,331.53,199.05,327.26,197.07z"/>
		<path style="clip-path:url(#SVGID_00000105409752141391898600000001334594140925162378_);fill:#97B461;" d="M150.16,85.25
			c-7.22-3.68-16.48-7.86-20.27-8.78c-7.88-1.92-16.08-2.44-26.31,1.03c-11.32,3.84-12.97,6.93-15.51,13.35l-6.4,2.92
			c-7.55,2.88-16.05,10.48-13.29,18.08c1.53,4.23,4.79,7.33,8.69,8.81l0.92,45.39c0.21,10.29,8.72,18.45,19,18.25
			c14.96-0.24,30.75-16.02,37.72-37.34l0.04,0.01L150.16,85.25z"/>
		<path style="clip-path:url(#SVGID_00000105409752141391898600000001334594140925162378_);fill:#99CFFF;" d="M121.95,74.99
			c31.68,39.3,21.35,55.2,12.15,71.76c-4.23,7.61-26.81,58.42-41.52,52.41c-17.15-7-22.58-75.65-25.88-83.29
			c-6.13-14.2,2.93-31.77,20.23-39.24C104.23,69.16,116.83,68.63,121.95,74.99z"/>
		<path style="clip-path:url(#SVGID_00000105409752141391898600000001334594140925162378_);fill:#7D964B;" d="M109.31,91.57
			c-1.04,4.27-5.73,6.8-10.47,5.64c-4.74-1.16-7.74-5.56-6.69-9.83c1.04-4.27,5.73-6.8,10.47-5.64
			C107.36,82.89,110.35,87.29,109.31,91.57z"/>
		<path style="clip-path:url(#SVGID_00000105409752141391898600000001334594140925162378_);fill:#312E42;" d="M98.05,92.56
			L98.05,92.56c-1.55-0.38-2.5-1.95-2.12-3.5l0.27-1.1c0.38-1.55,1.95-2.5,3.5-2.12l0,0c1.55,0.38,2.5,1.95,2.13,3.5l-0.27,1.1
			C101.17,91.98,99.59,92.93,98.05,92.56z"/>
		<path style="clip-path:url(#SVGID_00000105409752141391898600000001334594140925162378_);fill:#7D964B;" d="M110.07,128.61
			L110.07,128.61c-1.55-0.38-2.5-1.95-2.13-3.5l0.27-1.1c0.38-1.55,1.95-2.5,3.5-2.13l0,0c1.55,0.38,2.5,1.95,2.13,3.5l-0.27,1.1
			C113.19,128.03,111.62,128.99,110.07,128.61z"/>
		<path style="clip-path:url(#SVGID_00000105409752141391898600000001334594140925162378_);fill:#7D964B;" d="M116.08,116.76
			L116.08,116.76c-1.55-0.38-2.5-1.95-2.13-3.5l0.27-1.1c0.38-1.55,1.95-2.5,3.5-2.13l0,0c1.55,0.38,2.5,1.95,2.13,3.5l-0.27,1.1
			C119.2,116.18,117.62,117.14,116.08,116.76z"/>
		<path style="clip-path:url(#SVGID_00000105409752141391898600000001334594140925162378_);fill:#7D964B;" d="M138.09,128.96
			c-1.51,6.18-7.44,10.03-13.26,8.61c-5.82-1.42-9.31-7.58-7.8-13.75c1.51-6.18,7.44-10.03,13.26-8.61
			C136.11,116.63,139.6,122.79,138.09,128.96z"/>
		<path style="clip-path:url(#SVGID_00000105409752141391898600000001334594140925162378_);fill:#7D964B;" d="M106.4,189.11
			l-53.91-11.1l23.97-57.56l12.65,1.53c8.17,0.99,15.91,4.2,22.36,9.31c14.6,11.57,22.63,15.45,22.63,15.45l2.36,3l-10.63,16.26
			L106.4,189.11z"/>
		<path style="clip-path:url(#SVGID_00000105409752141391898600000001334594140925162378_);fill:#312E42;" d="M72.55,106.84
			L72.55,106.84c-0.84-0.21-1.36-1.06-1.16-1.9l0.43-1.75c0.21-0.84,1.06-1.36,1.9-1.16l0,0c0.84,0.21,1.36,1.06,1.16,1.9
			l-0.43,1.75C74.25,106.53,73.4,107.05,72.55,106.84z"/>
		<path style="clip-path:url(#SVGID_00000105409752141391898600000001334594140925162378_);fill:#5C3E42;" d="M64.16,116.23
			c-0.5-0.12-0.91-0.51-1.04-1.05c-0.18-0.76,0.29-1.51,1.05-1.69c1.04-0.24,4-0.48,8.73-0.85c4.59-0.36,10.31-0.8,12.17-1.22
			c3.28-0.74,5.11-2.13,7.22-3.73c0.9-0.68,1.83-1.39,2.9-2.06c4.19-2.62,6.72-4.19,18.62-3.65c0.77,0.03,1.37,0.69,1.34,1.47
			c-0.04,0.78-0.69,1.37-1.47,1.34c-11.03-0.51-13.15,0.82-17,3.22c-0.97,0.61-1.85,1.27-2.7,1.92c-2.17,1.65-4.42,3.35-8.29,4.23
			c-2.06,0.47-7.41,0.88-12.57,1.28c-3.65,0.28-7.42,0.57-8.31,0.78C64.59,116.28,64.37,116.28,64.16,116.23z"/>
	</g>
</g>
</svg>
